<?xml version="1.0" encoding="UTF-8" standalone="no"?>
<!-- Creator: CorelDRAW -->
<svg
   xmlns:dc="http://purl.org/dc/elements/1.1/"
   xmlns:cc="http://web.resource.org/cc/"
   xmlns:rdf="http://www.w3.org/1999/02/22-rdf-syntax-ns#"
   xmlns:svg="http://www.w3.org/2000/svg"
   xmlns="http://www.w3.org/2000/svg"
   xmlns:sodipodi="http://inkscape.sourceforge.net/DTD/sodipodi-0.dtd"
   xmlns:inkscape="http://www.inkscape.org/namespaces/inkscape"
   xml:space="preserve"
   x="-2.49404in"
   y="2.94218in"
   width="5.20761in"
   height="5.88436in"
   style="shape-rendering:geometricPrecision; text-rendering:geometricPrecision; image-rendering:optimizeQuality"
   viewBox="-2494 0 5208 5884"
   id="svg2"
   sodipodi:version="0.32"
   inkscape:version="0.43"
   sodipodi:docname="臺北市徽-民政局.svg"
   sodipodi:docbase="D:\維基"><metadata
   id="metadata172"><rdf:RDF><cc:Work
       rdf:about=""><dc:format>image/svg+xml</dc:format><dc:type
         rdf:resource="http://purl.org/dc/dcmitype/StillImage" /></cc:Work></rdf:RDF></metadata><sodipodi:namedview
   inkscape:window-height="1000"
   inkscape:window-width="1680"
   inkscape:pageshadow="2"
   inkscape:pageopacity="0.0"
   borderopacity="1.0"
   bordercolor="#666666"
   pagecolor="#ffffff"
   id="base"
   inkscape:zoom="0.99605216"
   inkscape:cx="234.34245"
   inkscape:cy="266.23758"
   inkscape:window-x="-8"
   inkscape:window-y="-8"
   inkscape:current-layer="svg2" />
 <defs
   id="defs4">
  <style
   type="text/css"
   id="style6">
   
    .str0 {stroke:#FFFFFF;stroke-width:14}
    .fil4 {fill:none}
    .fil3 {fill:#05A53C}
    .fil5 {fill:#223B86}
    .fil6 {fill:#2A2B2C}
    .fil0 {fill:#767B79}
    .fil2 {fill:#D62B24}
    .fil1 {fill:#F5C800}
   
  </style>
 
  
 
   
   
   
  
    
    
   
    
    
    
    
    
    
   
    
    
    
    
   
     
     
     
     
     
     
    
     
     
     
     
     
     
     
     
     
     
     
     
     
     
     
     
    
     
     
     
     
     
     
     
     
     
     
    </defs>
 <g
   id="g3892"><path
     id="61386344"
     class="fil0"
     d="M 1741,5343 L 1488,5343 L 1484,5326 L 1741,5326 L 1741,5277 C 1755,5279 1771,5282 1788,5285 C 1794,5286 1797,5290 1797,5296 C 1790,5304 1784,5311 1778,5319 L 1778,5326 L 1947,5326 L 1986,5287 L 2035,5325 L 2027,5343 L 1778,5343 L 1778,5390 L 1893,5390 L 1933,5351 L 1982,5389 L 1973,5407 L 1552,5407 L 1548,5390 L 1741,5390 L 1741,5343 z M 1628,5528 C 1627,5534 1626,5538 1623,5540 C 1620,5541 1615,5542 1608,5543 C 1602,5542 1597,5541 1594,5540 C 1591,5538 1590,5534 1590,5527 L 1590,5422 L 1624,5443 L 1625,5443 L 1894,5443 L 1915,5426 L 1947,5448 C 1950,5450 1952,5453 1951,5459 C 1950,5465 1946,5468 1941,5470 C 1936,5471 1934,5474 1934,5478 L 1934,5535 C 1933,5538 1931,5540 1926,5540 C 1917,5541 1910,5542 1903,5542 C 1898,5543 1896,5542 1896,5538 L 1896,5519 L 1628,5519 L 1628,5528 z M 1896,5502 L 1896,5461 L 1628,5461 L 1628,5502 L 1896,5502 z M 1504,5650 C 1497,5655 1490,5657 1482,5657 C 1477,5657 1472,5654 1469,5650 C 1462,5639 1466,5628 1481,5617 C 1506,5597 1519,5572 1522,5541 L 1533,5541 C 1533,5547 1533,5553 1533,5558 L 1989,5558 L 2016,5535 L 2052,5563 C 2060,5568 2063,5574 2061,5580 C 2059,5589 2053,5592 2042,5591 C 2036,5591 2031,5593 2028,5597 C 2013,5618 1999,5637 1987,5652 L 1975,5646 C 1986,5622 1993,5598 1997,5575 L 1532,5575 C 1527,5611 1518,5636 1504,5650 L 1735,5792 L 1559,5792 L 1555,5775 L 1735,5775 L 1735,5730 C 1675,5734 1621,5737 1575,5740 C 1572,5740 1570,5743 1570,5748 C 1569,5757 1565,5761 1557,5761 C 1550,5761 1545,5757 1543,5746 C 1540,5731 1537,5716 1534,5699 C 1568,5702 1602,5704 1637,5705 C 1651,5684 1663,5661 1672,5634 L 1570,5634 L 1566,5617 L 1863,5617 L 1901,5580 L 1946,5616 L 1938,5634 L 1714,5634 C 1697,5661 1679,5684 1660,5705 C 1723,5704 1792,5698 1869,5684 C 1854,5676 1841,5671 1829,5670 L 1833,5656 C 1852,5657 1873,5662 1896,5670 C 1920,5679 1937,5689 1947,5699 C 1951,5705 1954,5711 1954,5716 C 1955,5724 1953,5729 1950,5732 C 1945,5735 1941,5737 1936,5737 C 1930,5736 1926,5733 1923,5730 C 1912,5719 1902,5709 1892,5700 C 1856,5709 1816,5716 1773,5724 L 1773,5775 L 1881,5775 L 1919,5739 L 1964,5774 L 1956,5792 L 1773,5792 L 1773,5852 L 1954,5852 L 1994,5813 L 2043,5851 L 2035,5869 L 1483,5869 L 1479,5852 L 1735,5852 L 1735,5792 L 1504,5650 z "
     style="fill:#4c4c4c;fill-opacity:1" /><path
     id="61386432"
     class="fil0"
     d="M 2310,5483 L 2139,5483 L 2134,5466 L 2310,5466 L 2310,5281 C 2326,5284 2341,5287 2354,5288 C 2364,5290 2369,5294 2370,5299 C 2370,5306 2366,5311 2358,5314 C 2351,5317 2347,5322 2347,5327 L 2347,5874 C 2347,5878 2345,5881 2341,5881 C 2331,5883 2322,5884 2314,5884 C 2311,5884 2309,5882 2310,5878 L 2310,5722 C 2281,5741 2239,5762 2184,5785 C 2161,5793 2150,5799 2150,5803 C 2152,5812 2150,5818 2144,5821 C 2137,5823 2131,5820 2127,5811 C 2121,5798 2114,5782 2106,5762 C 2168,5758 2236,5737 2310,5700 L 2310,5483 z M 2658,5377 C 2670,5386 2681,5394 2692,5402 C 2696,5405 2697,5409 2697,5413 C 2697,5417 2695,5421 2691,5422 C 2687,5423 2684,5422 2680,5420 C 2676,5419 2674,5420 2672,5422 C 2630,5470 2573,5507 2503,5531 L 2503,5799 C 2503,5809 2504,5815 2506,5820 C 2509,5825 2513,5828 2520,5830 C 2532,5833 2550,5834 2576,5834 C 2603,5833 2623,5832 2636,5830 C 2641,5829 2645,5827 2648,5823 C 2658,5817 2668,5793 2677,5750 L 2693,5751 C 2692,5792 2694,5814 2700,5817 C 2709,5821 2714,5828 2714,5836 C 2714,5847 2705,5855 2687,5860 C 2669,5866 2633,5870 2579,5871 C 2544,5871 2518,5869 2499,5866 C 2488,5862 2479,5856 2472,5847 C 2467,5836 2465,5825 2465,5813 L 2465,5277 L 2511,5286 C 2519,5288 2523,5292 2523,5299 C 2522,5305 2517,5309 2507,5312 C 2504,5313 2503,5315 2503,5318 L 2503,5515 C 2570,5480 2622,5434 2658,5377 z "
     style="fill:#4c4c4c;fill-opacity:1" /></g><g
   id="g4082"
   style="fill:#ffcc00;fill-opacity:1"><path
     style="fill:#ffcc00;fill-opacity:1"
     d="M -1112,2466 C -1082,2466 -1128,2462 -1106,2473 C -1112,2471 -1131,2466 -1112,2466 z "
     class="fil1"
     id="61386608" /><path
     style="fill:#ffcc00;fill-opacity:1"
     d="M -1126,3054 C -1095,3053 -1122,3062 -1112,3067 C -1117,3066 -1127,3067 -1132,3067 C -1132,3065 -1132,3063 -1132,3061 C -1106,3048 -1161,3056 -1126,3054 z "
     class="fil1"
     id="61386696" /><path
     style="fill:#ffcc00;fill-opacity:1"
     d="M -1119,3172 C -1107,3172 -1114,3188 -1112,3198 L -1126,3198 C -1124,3188 -1131,3172 -1119,3172 z "
     class="fil1"
     id="61386784" /><path
     style="fill:#ffcc00;fill-opacity:1"
     d="M -916,3662 C -886,3662 -932,3658 -910,3669 C -916,3667 -935,3662 -916,3662 z "
     class="fil1"
     id="61386872" /><path
     style="fill:#ffcc00;fill-opacity:1"
     d="M -993,3452 C -993,3455 -993,3459 -993,3462 C -994,3461 -1040,3469 -984,3480 C -986,3469 -978,3449 -993,3452 z "
     class="fil1"
     id="61386960" /><path
     style="fill:#ffcc00;fill-opacity:1"
     d="M -1114,3415 C -1103,3417 -1113,3422 -1105,3452 L -1124,3452 C -1122,3440 -1130,3411 -1114,3415 z "
     class="fil1"
     id="61387048" /><path
     style="fill:#ffcc00;fill-opacity:1"
     d="M -1031,3378 C -1027,3386 -1033,3397 -1031,3406 C -1027,3406 -1024,3406 -1021,3406 C -1015,3427 -1019,3422 -1012,3443 L -993,3443 C -993,3433 -990,3424 -993,3415 C -995,3411 -1012,3409 -1021,3406 C -1022,3401 -1021,3384 -1021,3378 C -1024,3378 -1027,3378 -1031,3378 z "
     class="fil1"
     id="61387136" /><path
     style="fill:#ffcc00;fill-opacity:1"
     d="M -1114,3350 C -1114,3353 -1114,3356 -1114,3359 C -1114,3378 -1119,3362 -1105,3368 C -1105,3376 -1107,3389 -1105,3396 C -1106,3395 -1121,3404 -1124,3406 L -1124,3387 C -1127,3387 -1130,3387 -1133,3387 C -1135,3378 -1124,3350 -1114,3350 z "
     class="fil1"
     id="61387224" /><path
     style="fill:#ffcc00;fill-opacity:1"
     d="M -1124,3266 C -1121,3268 -1124,3290 -1124,3294 C -1110,3288 -1105,3318 -1133,3312 C -1125,3309 -1142,3275 -1142,3275 C -1139,3275 -1136,3275 -1133,3275 C -1132,3274 -1137,3255 -1124,3266 z "
     class="fil1"
     id="61387312" /><path
     style="fill:#ffcc00;fill-opacity:1"
     d="M -1049,3145 C -1052,3172 -1054,3188 -1058,3219 C -1055,3219 -1052,3219 -1049,3219 L -1049,3238 L -1031,3238 C -1028,3237 -1034,3219 -1021,3229 C -1016,3195 -1018,3183 -1012,3154 C -1257,3093 -791,3224 -1021,3145 C -1031,3141 -1042,3150 -1049,3145 z "
     class="fil1"
     id="61387400" /><path
     style="fill:#ffcc00;fill-opacity:1"
     d="M -1142,2856 C -1125,2860 -1135,2876 -1133,2893 L -1152,2893 L -1152,2874 C -1149,2874 -1145,2874 -1142,2874 C -1142,2871 -1142,2868 -1142,2865 C -1154,2865 -1159,2851 -1142,2856 z "
     class="fil1"
     id="61387488" /><path
     style="fill:#ffcc00;fill-opacity:1"
     d="M -1124,2380 C -1122,2381 -1124,2405 -1124,2408 C -1127,2408 -1130,2408 -1133,2408 C -1132,2400 -1138,2373 -1124,2380 z "
     class="fil1"
     id="61387576" /><path
     style="fill:#ffcc00;fill-opacity:1"
     d="M -1124,2306 C -1111,2308 -1124,2305 -1114,2334 L -1133,2334 C -1131,2322 -1139,2302 -1124,2306 z "
     class="fil1"
     id="61387664" /><path
     style="fill:#ffcc00;fill-opacity:1"
     d="M -1105,2138 C -1107,2139 -1105,2164 -1105,2166 C -1121,2162 -1114,2178 -1096,2175 C -1097,2167 -1090,2130 -1105,2138 z "
     class="fil1"
     id="61387752" /><path
     style="fill:#ffcc00;fill-opacity:1"
     d="M -1105,2026 C -1103,2018 -1091,2042 -1114,2054 C -1122,2058 -1104,2065 -1105,2073 L -1124,2073 C -1116,2047 -1134,2051 -1114,2035 C -1094,2019 -1139,2028 -1105,2026 z "
     class="fil1"
     id="61387840" /><path
     style="fill:#ffcc00;fill-opacity:1"
     d="M -602,684 C -592,691 -584,697 -574,702 C -574,706 -574,709 -574,712 C -567,716 -549,714 -546,721 C -540,737 -550,761 -546,777 C -538,776 -530,772 -518,768 C -518,764 -518,762 -518,758 L -499,758 C -495,763 -494,773 -490,777 C -489,778 -453,804 -453,805 C -448,815 -455,831 -453,842 C -449,842 -446,842 -443,842 C -442,853 -443,859 -443,870 C -440,870 -437,870 -434,870 C -430,884 -437,893 -434,907 C -431,907 -428,907 -425,907 C -419,944 -421,952 -415,991 C -412,991 -409,991 -406,991 C -403,1011 -412,1038 -406,1057 C -403,1057 -400,1057 -397,1057 L -397,1075 C -392,1078 -380,1081 -378,1085 C -370,1103 -377,1113 -369,1131 C -366,1131 -362,1131 -359,1131 C -354,1155 -365,1182 -359,1206 C -359,1206 -348,1210 -350,1224 C -353,1224 -356,1224 -359,1224 L -359,1243 C -356,1243 -353,1243 -350,1243 C -349,1265 -350,1287 -350,1308 C -347,1308 -344,1308 -341,1308 C -335,1364 -341,1420 -341,1476 C -344,1476 -347,1476 -350,1476 C -352,1507 -347,1539 -350,1569 C -353,1569 -356,1569 -359,1569 C -359,1595 -358,1619 -359,1644 C -363,1644 -366,1644 -369,1644 C -375,1713 -368,1762 -378,1830 C -381,1830 -384,1830 -387,1830 C -393,1868 -390,1871 -397,1905 C -400,1905 -403,1905 -406,1905 C -412,1944 -406,1987 -406,2026 C -421,2027 -416,2038 -425,2045 C -421,2045 -418,2045 -415,2045 C -415,2066 -414,2089 -415,2110 C -419,2110 -421,2110 -425,2110 C -430,2159 -428,2183 -434,2231 C -437,2231 -440,2231 -443,2231 C -445,2241 -433,2258 -434,2259 C -437,2259 -440,2259 -443,2259 C -443,2297 -443,2333 -443,2371 C -446,2371 -449,2371 -453,2371 C -453,2371 -445,2397 -443,2380 L -443,2399 C -446,2399 -449,2399 -453,2399 C -456,2443 -449,2486 -453,2529 C -456,2529 -459,2529 -462,2529 C -462,2615 -471,2673 -471,2762 C -474,2762 -477,2762 -481,2762 C -481,2783 -470,2786 -471,2818 C -474,2818 -477,2818 -481,2818 C -481,2857 -481,2892 -481,2930 C -484,2930 -487,2930 -490,2930 C -491,2948 -490,2968 -490,2986 C -487,2986 -483,2986 -481,2986 L -481,3005 C -484,3005 -487,3005 -490,3005 C -494,3022 -488,3043 -490,3061 C -493,3061 -496,3061 -499,3061 C -499,3064 -499,3067 -499,3070 C -489,3075 -487,3082 -490,3098 C -493,3098 -496,3098 -499,3098 C -505,3125 -502,3128 -509,3154 C -512,3154 -515,3154 -518,3154 C -518,3157 -518,3160 -518,3163 C -515,3163 -511,3163 -509,3163 C -511,3183 -502,3164 -518,3173 C -518,3183 -513,3210 -518,3219 L -536,3219 C -539,3223 -545,3237 -546,3238 L -564,3238 C -564,3253 -560,3279 -564,3294 C -626,3294 -525,3301 -574,3284 C -587,3280 -607,3290 -611,3294 L -611,3312 C -631,3322 -613,3301 -620,3322 C -619,3305 -611,3331 -611,3331 C -614,3331 -617,3331 -620,3331 C -622,3348 -623,3335 -611,3340 C -614,3360 -604,3342 -620,3350 C -620,3363 -617,3383 -620,3396 L -648,3415 C -655,3432 -648,3462 -648,3480 C -652,3482 -667,3489 -667,3489 C -672,3510 -652,3504 -658,3517 C -661,3517 -664,3517 -667,3517 C -673,3538 -669,3536 -676,3555 C -679,3555 -703,3553 -704,3555 C -707,3553 -711,3541 -714,3536 C -716,3536 -739,3538 -742,3536 L -742,3517 C -745,3517 -748,3517 -751,3517 C -754,3516 -758,3504 -760,3499 L -779,3499 C -779,3496 -779,3493 -779,3489 C -803,3481 -775,3494 -788,3499 C -803,3504 -807,3489 -807,3489 C -821,3486 -839,3490 -853,3489 L -853,3508 C -854,3509 -868,3515 -872,3517 C -872,3521 -872,3524 -872,3527 C -901,3532 -906,3509 -909,3508 C -925,3504 -950,3512 -965,3508 L -965,3527 C -963,3528 -947,3536 -947,3536 L -947,3555 L -919,3573 C -913,3587 -922,3580 -928,3583 C -920,3604 -939,3582 -919,3592 L -919,3611 C -915,3611 -912,3611 -909,3611 C -907,3622 -912,3627 -909,3639 C -911,3637 -927,3632 -928,3629 C -936,3618 -927,3609 -937,3601 C -946,3595 -966,3598 -975,3592 C -971,3606 -979,3615 -975,3629 C -971,3629 -968,3629 -965,3629 L -965,3648 C -962,3648 -959,3648 -956,3648 C -952,3662 -960,3671 -956,3685 C -967,3691 -967,3678 -965,3695 C -962,3695 -959,3695 -956,3695 L -956,3713 C -961,3713 -981,3710 -984,3713 C -991,3688 -972,3714 -993,3704 C -993,3691 -989,3669 -993,3657 L -1012,3648 C -1019,3636 -1011,3628 -1021,3620 C -1029,3614 -1045,3618 -1049,3611 C -1055,3601 -1046,3585 -1049,3573 C -1052,3573 -1055,3573 -1058,3573 L -1058,3555 C -1079,3545 -1061,3568 -1068,3545 C -1060,3541 -1054,3551 -1058,3536 C -1062,3536 -1065,3536 -1068,3536 L -1068,3517 C -1071,3517 -1074,3517 -1077,3517 C -1086,3494 -1080,3477 -1086,3452 C -1090,3452 -1093,3452 -1096,3452 C -1099,3435 -1097,3448 -1086,3443 C -1089,3428 -1089,3437 -1096,3424 C -1093,3424 -1089,3424 -1086,3424 C -1089,3402 -1079,3423 -1096,3415 C -1096,3399 -1091,3374 -1096,3359 C -1096,3359 -1113,3348 -1114,3340 C -1111,3340 -1108,3340 -1105,3340 C -1101,3324 -1105,3330 -1096,3322 C -1096,3319 -1096,3316 -1096,3312 C -1122,3299 -1089,3260 -1114,3247 C -1114,3244 -1114,3241 -1114,3238 C -1111,3238 -1108,3238 -1105,3238 C -1105,3219 -1103,3200 -1105,3182 C -1108,3182 -1111,3182 -1114,3182 C -1117,3167 -1114,3150 -1114,3135 C -1136,3125 -1115,3148 -1124,3126 C -1129,3113 -1133,3145 -1133,3145 C -1144,3149 -1150,3098 -1133,3098 C -1135,3113 -1124,3117 -1124,3117 C -1124,3112 -1126,3080 -1124,3079 C -1121,3079 -1117,3079 -1114,3079 C -1110,3061 -1119,3065 -1124,3051 C -1124,3051 -1091,3039 -1105,3033 C -1108,3033 -1111,3033 -1114,3033 L -1124,3005 C -1142,2997 -1142,3021 -1152,3014 C -1144,2984 -1148,2976 -1142,2949 C -1134,2946 -1130,2955 -1124,2958 L -1124,2940 C -1121,2940 -1117,2940 -1114,2940 C -1110,2926 -1121,2903 -1124,2893 C -1121,2893 -1117,2893 -1114,2893 C -1018,2845 -1217,2915 -1105,2884 C -1105,2880 -1105,2878 -1105,2874 C -1106,2873 -1120,2867 -1124,2865 C -1124,2862 -1121,2840 -1124,2837 C -1124,2836 -1139,2845 -1142,2846 C -1152,2813 -1137,2841 -1152,2828 L -1152,2809 C -1125,2805 -1141,2830 -1124,2828 L -1124,2809 C -1121,2809 -1117,2809 -1114,2809 C -1111,2809 -1108,2809 -1105,2809 L -1105,2790 L -1124,2790 C -1128,2778 -1124,2758 -1124,2744 C -1174,2716 -1126,2775 -1142,2725 C -1172,2723 -1135,2699 -1133,2697 C -1136,2699 -1133,2721 -1133,2725 C -1130,2725 -1127,2725 -1124,2725 C -1119,2714 -1129,2708 -1124,2697 L -1105,2697 C -1100,2676 -1104,2667 -1096,2651 C -1125,2651 -1126,2657 -1142,2660 L -1142,2641 C -1135,2637 -1123,2641 -1114,2641 C -1110,2624 -1118,2631 -1105,2623 C -1113,2608 -1110,2601 -1114,2585 L -1133,2585 L -1133,2567 C -1077,2551 -1165,2589 -1124,2557 C -1121,2557 -1117,2557 -1114,2557 L -1114,2539 C -1118,2539 -1121,2539 -1124,2539 C -1127,2539 -1130,2539 -1133,2539 C -1133,2534 -1131,2513 -1133,2511 C -1126,2507 -1114,2511 -1105,2511 C -1100,2493 -1107,2501 -1096,2492 C -1102,2479 -1098,2487 -1105,2473 C -1108,2473 -1111,2473 -1114,2473 L -1114,2455 C -1118,2455 -1121,2455 -1124,2455 C -1142,2441 -1106,2437 -1105,2436 C -1108,2426 -1105,2419 -1105,2408 C -1125,2398 -1109,2423 -1114,2399 C -1103,2393 -1104,2406 -1105,2390 C -1117,2391 -1146,2359 -1096,2362 C -1102,2359 -1100,2298 -1096,2296 C -1097,2295 -1121,2281 -1114,2278 C -1111,2278 -1108,2278 -1105,2278 C -1099,2260 -1096,2250 -1096,2250 C -1104,2245 -1109,2246 -1105,2231 C -1105,2231 -1089,2223 -1086,2222 L -1086,2203 C -1090,2203 -1093,2203 -1096,2203 L -1096,2185 C -1111,2178 -1114,2190 -1124,2194 C -1126,2176 -1124,2156 -1124,2138 C -1141,2129 -1129,2150 -1133,2129 C -1112,2118 -1123,2127 -1096,2129 C -1094,2108 -1103,2074 -1096,2054 C -1093,2054 -1089,2054 -1086,2054 C -1079,2040 -1081,2051 -1077,2035 C -1086,2029 -1086,2031 -1096,2026 C -1094,2023 -1082,2009 -1086,2007 C -1107,1997 -1089,2021 -1096,1998 C -1088,1994 -1082,2004 -1086,1989 C -1088,1983 -1107,1982 -1114,1979 C -1114,1974 -1114,1958 -1114,1951 C -1111,1951 -1108,1951 -1105,1951 C -1098,1912 -1105,1862 -1105,1821 C -1102,1821 -1099,1821 -1096,1821 C -1096,1821 -1107,1803 -1105,1784 C -1102,1784 -1099,1784 -1096,1784 C -1096,1761 -1100,1731 -1096,1709 C -1093,1709 -1089,1709 -1086,1709 C -1085,1701 -1086,1690 -1086,1681 C -1083,1681 -1080,1681 -1077,1681 C -1076,1667 -1075,1648 -1077,1635 C -1080,1635 -1083,1635 -1086,1635 C -1091,1615 -1080,1614 -1096,1607 C -1096,1603 -1096,1600 -1096,1597 C -1093,1597 -1089,1597 -1086,1597 C -1083,1584 -1076,1557 -1077,1551 C -1077,1551 -1093,1547 -1086,1532 C -1083,1532 -1080,1532 -1077,1532 C -1075,1531 -1070,1515 -1068,1513 C -1064,1510 -1051,1507 -1049,1504 C -1038,1479 -1047,1460 -1040,1429 C -1037,1429 -1033,1429 -1031,1429 L -1031,1411 C -1027,1411 -1024,1411 -1021,1411 C -1018,1397 -1025,1378 -1021,1364 L -1003,1355 C -1000,1347 -1005,1335 -1003,1327 C -999,1327 -996,1327 -993,1327 L -993,1308 C -990,1308 -987,1308 -984,1308 C -979,1294 -989,1277 -984,1262 C -981,1262 -978,1262 -975,1262 C -961,1234 -993,1266 -965,1252 L -965,1234 C -962,1234 -959,1234 -956,1234 C -953,1226 -958,1214 -956,1206 C -953,1206 -950,1206 -947,1206 L -947,1187 C -943,1187 -940,1187 -937,1187 L -937,1168 L -919,1159 C -913,1150 -913,1125 -909,1122 L -891,1122 C -891,1119 -891,1116 -891,1113 C -875,1108 -867,1113 -853,1103 L -853,1085 C -852,1079 -832,1080 -825,1075 C -816,1068 -820,1059 -816,1047 C -813,1047 -810,1047 -807,1047 C -802,1036 -809,1022 -807,1010 C -804,1010 -800,1010 -797,1010 C -793,978 -794,964 -788,935 C -810,940 -815,947 -844,945 C -842,938 -844,924 -844,917 C -841,915 -826,909 -825,907 C -825,907 -830,884 -835,898 C -835,895 -835,892 -835,889 C -835,889 -818,880 -816,880 C -816,876 -816,873 -816,870 L -797,870 L -797,852 C -794,852 -791,852 -788,852 C -788,848 -788,845 -788,842 C -767,831 -763,815 -742,805 C -742,802 -742,799 -742,796 C -738,796 -735,796 -732,796 L -732,777 C -727,772 -711,780 -704,777 L -704,758 L -676,740 C -676,736 -676,734 -676,730 L -658,730 C -654,734 -648,768 -648,768 C -637,778 -611,770 -592,777 C -592,777 -584,794 -583,796 L -564,796 L -564,777 C -568,777 -571,777 -574,777 L -583,758 L -602,758 C -603,758 -609,743 -611,740 C -614,740 -617,740 -620,740 L -620,721 C -624,721 -627,721 -630,721 C -636,704 -632,705 -639,693 C -611,686 -624,695 -602,684 z "
     class="fil1"
     id="61387928" /></g><path
   id="61388104"
   class="fil2"
   d="M -1962,1950 C -1949,1951 -1957,1966 -1955,1976 L -1968,1976 C -1968,1974 -1968,1972 -1968,1970 C -1978,1979 -1977,1949 -1962,1950 z "
   style="fill:#e60000;fill-opacity:1" /><path
   id="61388192"
   class="fil2"
   d="M -1988,1989 C -1965,1991 -1970,2012 -1988,2009 C -1988,2007 -1988,2005 -1988,2003 C -2001,2003 -1996,1989 -1988,1989 z "
   style="fill:#e60000;fill-opacity:1" /><path
   id="61388280"
   class="fil2"
   d="M -2039,2034 C -2025,2032 -2014,2034 -1999,2034 C -1999,2036 -1993,2047 -1993,2048 C -1978,2052 -1995,2057 -1999,2061 C -1999,2063 -1999,2065 -1999,2067 C -2020,2063 -2027,2063 -2045,2061 C -2044,2050 -2050,2036 -2039,2034 z "
   style="fill:#e60000;fill-opacity:1" /><path
   id="61388368"
   class="fil2"
   d="M -2008,2662 C -1995,2662 -2003,2673 -2001,2682 L -2014,2682 C -2012,2673 -2020,2662 -2008,2662 z "
   style="fill:#e60000;fill-opacity:1" /><path
   id="61388456"
   class="fil2"
   d="M -1888,1868 C -1888,1868 -1881,1881 -1879,1886 L -1897,1886 C -1895,1877 -1903,1864 -1888,1868 z "
   style="fill:#e60000;fill-opacity:1" /><path
   id="61388544"
   class="fil2"
   d="M -1814,1802 C -1798,1805 -1783,1802 -1767,1802 C -1767,1806 -1767,1809 -1767,1812 C -1756,1814 -1749,1807 -1739,1812 L -1711,1849 C -1703,1852 -1689,1845 -1683,1849 L -1674,1877 C -1665,1882 -1656,1874 -1646,1877 C -1646,1880 -1646,1883 -1646,1886 C -1631,1891 -1629,1890 -1618,1896 C -1618,1899 -1618,1902 -1618,1905 C -1610,1909 -1598,1902 -1590,1905 L -1580,1924 C -1564,1934 -1560,1924 -1543,1933 C -1543,1933 -1534,1951 -1534,1951 L -1515,1951 C -1513,1955 -1507,1970 -1506,1970 L -1487,1970 C -1487,1973 -1487,1977 -1487,1979 L -1469,1979 C -1468,1980 -1459,1998 -1459,1998 C -1454,2001 -1437,2004 -1431,2007 C -1431,2011 -1431,2014 -1431,2017 C -1428,2017 -1425,2017 -1422,2017 C -1419,2025 -1426,2037 -1422,2045 L -1394,2063 C -1385,2082 -1390,2088 -1385,2110 C -1382,2110 -1378,2110 -1375,2110 C -1373,2121 -1380,2127 -1375,2138 C -1372,2138 -1369,2138 -1366,2138 L -1366,2157 C -1363,2157 -1360,2157 -1357,2157 C -1355,2165 -1360,2177 -1357,2185 C -1354,2185 -1350,2185 -1347,2185 C -1341,2207 -1347,2200 -1338,2222 C -1335,2222 -1332,2222 -1329,2222 C -1326,2233 -1335,2249 -1329,2259 C -1329,2259 -1302,2277 -1301,2278 C -1301,2281 -1301,2284 -1301,2287 L -1282,2287 C -1282,2290 -1282,2293 -1282,2296 L -1264,2296 C -1264,2300 -1264,2303 -1264,2306 L -1226,2334 C -1224,2341 -1231,2356 -1226,2362 C -1220,2370 -1206,2364 -1198,2371 L -1198,2390 C -1198,2390 -1171,2408 -1170,2408 C -1170,2411 -1170,2415 -1170,2418 L -1152,2418 C -1146,2429 -1152,2460 -1152,2473 C -1148,2475 -1134,2481 -1133,2483 C -1131,2488 -1137,2507 -1133,2511 C -1128,2515 -1105,2512 -1096,2520 L -1096,2539 L -1114,2539 C -1114,2542 -1114,2545 -1114,2548 L -1114,2567 L -1133,2567 C -1140,2582 -1135,2616 -1142,2632 C -1144,2636 -1157,2639 -1161,2641 L -1161,2660 C -1164,2660 -1167,2660 -1170,2660 C -1172,2667 -1167,2682 -1170,2688 L -1198,2697 L -1198,2716 C -1199,2717 -1216,2724 -1217,2725 C -1217,2728 -1217,2732 -1217,2734 C -1224,2739 -1240,2737 -1245,2744 L -1245,2762 C -1248,2762 -1251,2762 -1254,2762 L -1254,2781 C -1257,2781 -1260,2781 -1264,2781 C -1271,2801 -1266,2809 -1273,2828 C -1294,2826 -1294,2841 -1319,2837 C -1319,2834 -1319,2831 -1319,2828 L -1338,2828 C -1339,2827 -1338,2815 -1357,2818 C -1357,2822 -1357,2825 -1357,2828 L -1375,2828 C -1375,2831 -1375,2834 -1375,2837 C -1384,2841 -1403,2865 -1403,2865 C -1415,2870 -1430,2875 -1441,2874 C -1441,2871 -1441,2868 -1441,2865 C -1448,2865 -1462,2862 -1469,2865 C -1497,2875 -1438,2880 -1478,2874 C -1478,2871 -1478,2868 -1478,2865 C -1489,2865 -1495,2867 -1506,2865 C -1506,2862 -1506,2859 -1506,2856 C -1517,2853 -1523,2860 -1534,2856 C -1534,2856 -1543,2837 -1543,2837 C -1560,2829 -1564,2836 -1580,2828 C -1580,2824 -1580,2822 -1580,2818 C -1608,2811 -1599,2837 -1599,2837 C -1611,2839 -1618,2818 -1618,2818 C -1626,2815 -1638,2822 -1646,2818 C -1648,2817 -1652,2801 -1655,2800 L -1674,2800 C -1674,2797 -1674,2794 -1674,2790 C -1677,2790 -1680,2790 -1683,2790 C -1683,2787 -1683,2784 -1683,2781 C -1691,2778 -1703,2785 -1711,2781 L -1711,2762 C -1730,2755 -1757,2767 -1776,2762 L -1786,2744 C -1794,2741 -1805,2747 -1814,2744 L -1832,2716 C -1850,2707 -1873,2717 -1888,2707 L -1888,2688 L -1907,2688 C -1907,2685 -1907,2682 -1907,2679 C -1917,2676 -1936,2685 -1944,2679 C -1944,2675 -1944,2672 -1944,2669 C -1960,2661 -1947,2658 -1953,2641 L -1972,2632 L -1972,2613 C -1975,2613 -1978,2613 -1981,2613 C -1981,2610 -1981,2607 -1981,2604 C -1987,2604 -2005,2607 -2009,2604 C -2009,2601 -2009,2598 -2009,2595 C -1996,2619 -2009,2567 -2009,2567 L -2028,2567 C -2032,2559 -2025,2547 -2028,2539 C -2031,2539 -2034,2539 -2037,2539 C -2042,2536 -2044,2514 -2047,2511 C -2048,2509 -2061,2503 -2065,2501 C -2065,2498 -2065,2495 -2065,2492 C -2068,2492 -2071,2492 -2075,2492 L -2075,2473 C -2081,2468 -2098,2471 -2102,2464 C -2107,2457 -2100,2444 -2102,2436 C -2103,2435 -2117,2429 -2121,2427 L -2121,2408 L -2149,2399 C -2154,2389 -2144,2371 -2149,2362 C -2140,2354 -2132,2359 -2121,2352 C -2118,2350 -2112,2339 -2102,2334 C -2105,2332 -2102,2299 -2121,2315 C -2122,2313 -2130,2297 -2130,2296 L -2149,2296 C -2144,2280 -2140,2268 -2140,2268 C -2128,2265 -2123,2271 -2112,2268 C -2112,2265 -2112,2262 -2112,2259 C -2079,2254 -2070,2256 -2037,2250 C -2037,2247 -2037,2244 -2037,2240 C -2027,2238 -2019,2245 -2009,2240 C -2009,2237 -2009,2234 -2009,2231 C -1968,2222 -2000,2222 -2000,2222 L -2000,2203 L -1981,2203 C -1981,2200 -1981,2197 -1981,2194 C -1956,2199 -1952,2202 -1925,2203 C -1921,2194 -1925,2176 -1925,2166 C -1908,2157 -1920,2178 -1916,2157 L -1897,2157 C -1891,2152 -1916,2143 -1907,2129 L -1888,2129 C -1874,2103 -1906,2133 -1879,2119 C -1879,2116 -1881,2095 -1879,2091 L -1851,2082 C -1847,2058 -1857,2070 -1869,2063 C -1869,2043 -1866,2018 -1869,1998 C -1868,1997 -1843,1998 -1841,1998 L -1841,1979 L -1823,1979 C -1817,1963 -1817,1927 -1814,1914 L -1795,1914 C -1796,1917 -1804,1961 -1804,1961 C -1787,1958 -1766,1961 -1748,1961 C -1748,1958 -1748,1955 -1748,1951 C -1748,1948 -1748,1945 -1748,1942 C -1764,1938 -1771,1921 -1786,1914 C -1786,1911 -1786,1908 -1786,1905 L -1804,1905 C -1804,1902 -1804,1899 -1804,1896 C -1817,1902 -1840,1897 -1851,1905 C -1862,1913 -1841,1924 -1841,1924 C -1843,1924 -1841,1949 -1841,1951 C -1869,1951 -1868,1942 -1879,1942 C -1879,1945 -1879,1949 -1879,1951 C -1884,1951 -1900,1951 -1907,1951 C -1910,1946 -1924,1915 -1925,1914 C -1906,1907 -1907,1910 -1879,1905 C -1879,1902 -1879,1899 -1879,1896 C -1879,1896 -1864,1888 -1860,1886 C -1860,1876 -1866,1849 -1860,1840 L -1841,1840 C -1846,1856 -1841,1844 -1832,1849 C -1832,1849 -1808,1805 -1832,1821 C -1832,1818 -1832,1815 -1832,1812 C -1831,1811 -1814,1803 -1814,1802 z "
   style="fill:#e60000;fill-opacity:1" /><g
   id="g43"
   style="fill:#007f00;fill-opacity:1">
     <path
   style="fill:#007f00;fill-opacity:1"
   d="M 90,2257 C 102,2257 94,2268 96,2277 L 83,2277 C 85,2268 78,2257 90,2257 z "
   class="fil3"
   id="61388720" />
     <path
   style="fill:#007f00;fill-opacity:1"
   d="M 96,2832 C 116,2823 107,2849 109,2858 C 107,2858 105,2858 103,2858 C 102,2860 97,2871 96,2872 C 79,2880 79,2854 90,2858 C 90,2856 88,2833 90,2832 C 92,2832 94,2832 96,2832 z "
   class="fil3"
   id="61388808" />
     <path
   style="fill:#007f00;fill-opacity:1"
   d="M 90,2878 C 113,2859 85,2922 83,2924 C 74,2932 78,2918 77,2917 C 73,2929 70,2911 70,2911 L 83,2904 C 85,2898 83,2884 83,2878 C 85,2878 88,2878 90,2878 z "
   class="fil3"
   id="61388896" />
     <path
   style="fill:#007f00;fill-opacity:1"
   d="M 194,2885 C 194,2887 194,2889 194,2891 C 206,2891 202,2901 194,2898 C 194,2900 194,2902 194,2904 C 184,2903 184,2885 194,2885 z "
   class="fil3"
   id="61388984" />
     <path
   style="fill:#007f00;fill-opacity:1"
   d="M 233,2885 C 259,2885 235,2894 247,2904 C 241,2904 232,2903 227,2904 C 227,2902 227,2900 227,2898 C 215,2906 222,2884 233,2885 z "
   class="fil3"
   id="61389072" />
     <path
   style="fill:#007f00;fill-opacity:1"
   d="M 83,2943 C 95,2940 91,2950 83,2950 C 83,2952 83,2954 83,2956 C 71,2959 76,2945 83,2943 z "
   class="fil3"
   id="61389160" />
     <path
   style="fill:#007f00;fill-opacity:1"
   d="M 149,3041 C 131,3048 155,3048 155,3048 C 154,3050 150,3060 149,3061 C 136,3065 129,3052 142,3054 C 145,3044 137,3044 149,3041 z "
   class="fil3"
   id="61389248" />
     <path
   style="fill:#007f00;fill-opacity:1"
   d="M 188,3041 C 188,3044 188,3046 188,3048 L 188,3061 C 186,3061 184,3061 181,3061 C 181,3059 181,3057 181,3054 C 168,3063 177,3041 188,3041 z "
   class="fil3"
   id="61389336" />
     <path
   style="fill:#007f00;fill-opacity:1"
   d="M -67,3250 C -13,3250 -74,3263 -74,3264 C -71,3255 -80,3250 -67,3250 z "
   class="fil3"
   id="61389424" />
     <path
   style="fill:#007f00;fill-opacity:1"
   d="M 24,3283 C 36,3283 30,3305 31,3316 L 18,3316 C 13,3314 8,3289 18,3296 C 20,3287 11,3283 24,3283 z "
   class="fil3"
   id="61389512" />
     <path
   style="fill:#007f00;fill-opacity:1"
   d="M 57,3309 C 58,3323 54,3311 64,3316 C 64,3338 64,3359 64,3381 C 59,3381 41,3378 38,3381 L 38,3368 C 37,3367 26,3363 24,3362 L 24,3348 L 44,3342 C 46,3336 44,3322 44,3316 C 46,3315 57,3311 57,3309 z "
   class="fil3"
   id="61389600" />
     <path
   style="fill:#007f00;fill-opacity:1"
   d="M -119,3616 C -110,3621 -126,3629 -126,3629 C -125,3625 -130,3611 -119,3616 z "
   class="fil3"
   id="61389688" />
     <path
   style="fill:#007f00;fill-opacity:1"
   d="M -21,3649 C 9,3649 -37,3645 -15,3656 C -21,3654 -40,3649 -21,3649 z "
   class="fil3"
   id="61389776" />
     <path
   style="fill:#007f00;fill-opacity:1"
   d="M 136,3669 C 147,3666 141,3687 142,3695 C 131,3698 132,3690 129,3701 C 115,3701 121,3699 116,3695 C 96,3680 118,3679 129,3675 C 181,3657 75,3679 136,3669 z "
   class="fil3"
   id="61389864" />
     <path
   style="fill:#007f00;fill-opacity:1"
   d="M -132,3701 C -121,3701 -127,3718 -126,3727 L -139,3727 C -138,3718 -144,3701 -132,3701 z "
   class="fil3"
   id="61389952" />
     <path
   style="fill:#007f00;fill-opacity:1"
   d="M -28,3734 C -28,3736 -28,3738 -28,3740 C -17,3746 -25,3747 -21,3760 C -24,3758 -32,3765 -34,3767 C -34,3764 -34,3762 -34,3760 C -39,3780 -39,3749 -41,3740 C -39,3740 -36,3740 -34,3740 C -28,3735 -43,3730 -28,3734 z "
   class="fil3"
   id="61390040" />
     <path
   style="fill:#007f00;fill-opacity:1"
   d="M -47,3780 C -25,3782 -23,3799 -47,3799 L -47,3786 C -57,3786 -57,3779 -47,3780 z "
   class="fil3"
   id="61390128" />
     <path
   style="fill:#007f00;fill-opacity:1"
   d="M 51,3793 C 76,3788 76,3810 64,3806 C 60,3817 61,3824 57,3825 C 57,3825 45,3819 44,3819 C 45,3807 38,3795 51,3793 z "
   class="fil3"
   id="61390216" />
     <path
   style="fill:#007f00;stroke:#ffffff;stroke-width:14;fill-opacity:1"
   d="M 31,3839 C 31,3841 31,3843 31,3845 C 45,3841 43,3841 57,3839"
   class="fil4 str0"
   id="61390304" />
     <path
   style="fill:#007f00;stroke:#ffffff;stroke-width:14;fill-opacity:1"
   d="M 57,3839 L 57,3852"
   class="fil4 str0"
   id="61390392" />
     <path
   style="fill:#007f00;stroke:#ffffff;stroke-width:14;fill-opacity:1"
   d="M 57,3852 C 52,3852 42,3850 38,3852 C 39,3864 40,3855 51,3858 C 46,3884 48,3892 44,3917 C 53,3922 59,3912 64,3910 C 64,3913 64,3915 64,3917 C 66,3917 68,3917 70,3917 C 71,3924 70,3936 70,3943 C 84,3950 70,3933 77,3950 C 68,3955 65,3952 51,3956 C 49,3968 53,3958 44,3963"
   class="fil4 str0"
   id="61390480" />
     <path
   style="fill:#007f00;stroke:#ffffff;stroke-width:14;fill-opacity:1"
   d="M 44,3963 L 44,3976"
   class="fil4 str0"
   id="61390568" />
     <path
   style="fill:#007f00;stroke:#ffffff;stroke-width:14;fill-opacity:1"
   d="M 44,3976 C 46,3976 49,3976 51,3976 C 47,3986 47,3981 44,3995 C 35,3995 19,3992 11,3995 C 15,3980 13,3984 18,3969 C 20,3969 22,3969 24,3969 C 25,3965 24,3953 24,3950 C 22,3950 20,3950 18,3950 C 14,3928 18,3899 18,3878"
   class="fil4 str0"
   id="61390656" />
     <path
   style="fill:#007f00;stroke:#ffffff;stroke-width:14;fill-opacity:1"
   d="M 18,3878 L 31,3878"
   class="fil4 str0"
   id="61390744" />
     <path
   style="fill:#007f00;stroke:#ffffff;stroke-width:14;fill-opacity:1"
   d="M 31,3878 C 34,3868 28,3846 24,3858 C 21,3856 30,3844 18,3852 C 18,3852 29,3827 31,3839"
   class="fil4 str0"
   id="61390832" />
     <path
   style="fill:#007f00;fill-opacity:1"
   d="M -87,3852 C -83,3851 -71,3852 -67,3852 C -69,3861 -70,3856 -74,3865 C -76,3865 -78,3865 -80,3865 C -85,3880 -77,3901 -80,3917 C -82,3917 -84,3917 -87,3917 C -87,3921 -86,3932 -87,3936 C -80,3940 -80,3931 -80,3943 C -82,3943 -84,3943 -87,3943 C -87,3955 -86,3964 -87,3976 C -91,3976 -110,3973 -113,3976 C -113,3978 -113,3980 -113,3982 C -99,3986 -100,3983 -87,3989 C -88,4000 -87,4010 -87,4021 C -89,4021 -91,4021 -93,4021 C -95,4036 -88,4054 -93,4067 L -106,4074 C -109,4081 -104,4085 -106,4093 C -104,4093 -102,4093 -100,4093 C -101,4097 -100,4109 -100,4113 C -107,4117 -106,4107 -106,4119 C -106,4122 -106,4124 -106,4126 C -102,4127 -84,4127 -80,4126 L -80,4113 C -73,4113 -61,4115 -54,4113 C -54,4115 -54,4117 -54,4119 C -66,4123 -65,4121 -74,4126 L -60,4146 C -46,4150 -41,4139 -41,4139 C -37,4138 -25,4140 -21,4139 C -21,4139 -11,4152 -41,4152 L -41,4165 C -39,4165 -36,4165 -34,4165 C -38,4177 -33,4169 -28,4172 L -28,4185 C -30,4186 -40,4190 -41,4191 L -41,4204 C -33,4209 -33,4207 -21,4211 C -22,4213 -18,4239 -28,4231 C -32,4233 -22,4244 -34,4237 C -34,4244 -32,4257 -34,4263 L -47,4263 C -51,4250 -44,4257 -54,4250 C -54,4250 -50,4198 -47,4217 C -52,4210 -65,4208 -67,4204 C -71,4198 -72,4162 -74,4152 C -75,4152 -93,4152 -93,4152 C -98,4164 -94,4155 -106,4159 C -108,4181 -109,4185 -113,4204 C -111,4204 -108,4204 -106,4204 C -106,4213 -110,4229 -106,4237 L -87,4244 C -87,4244 -82,4265 -80,4270 C -78,4270 -76,4270 -74,4270 L -74,4283 C -71,4283 -69,4283 -67,4283 L -74,4302 C -78,4302 -89,4300 -93,4302 C -101,4295 -95,4286 -93,4270 C -93,4270 -112,4270 -113,4270 C -115,4276 -113,4289 -113,4296 C -114,4296 -126,4302 -126,4302 C -126,4302 -123,4321 -119,4309 C -119,4309 -115,4327 -113,4315 C -113,4322 -115,4335 -113,4342 C -120,4338 -125,4344 -132,4342 C -134,4341 -138,4329 -139,4328 C -143,4326 -161,4324 -165,4322 C -163,4316 -166,4308 -165,4302 C -163,4302 -161,4302 -159,4302 C -158,4298 -160,4287 -159,4283 C -156,4283 -154,4283 -152,4283 C -152,4277 -151,4268 -152,4263 C -152,4263 -159,4262 -159,4250 C -156,4250 -154,4250 -152,4250 C -152,4243 -151,4231 -152,4224 C -154,4224 -156,4224 -159,4224 C -159,4220 -158,4208 -159,4204 C -152,4200 -153,4201 -145,4198 C -145,4196 -145,4194 -145,4191 C -142,4193 -137,4199 -132,4198 C -133,4194 -132,4182 -132,4178 C -135,4178 -137,4178 -139,4178 C -143,4159 -133,4131 -139,4113 C -141,4113 -143,4113 -145,4113 C -145,4111 -145,4109 -145,4106 L -159,4106 C -161,4098 -162,4086 -165,4080 L -178,4074 L -178,4061 L -165,4061 C -161,4068 -162,4066 -159,4074 C -156,4074 -154,4074 -152,4074 L -152,4087 L -139,4087 C -139,4061 -139,4034 -139,4008 C -135,4006 -114,3997 -113,3995 C -113,3993 -113,3991 -113,3989 C -117,3989 -129,3989 -132,3989 C -130,3987 -132,3966 -132,3963 L -119,3963 C -119,3960 -119,3958 -119,3956 L -132,3956 C -132,3949 -131,3936 -132,3930 C -130,3930 -128,3930 -126,3930 L -126,3917 C -124,3917 -121,3917 -119,3917 C -118,3904 -120,3913 -126,3910 L -126,3897 C -124,3897 -121,3897 -119,3897 C -116,3885 -121,3871 -119,3858 C -113,3858 -100,3860 -93,3858 C -49,3843 -139,3860 -87,3852 z "
   class="fil3"
   id="61390920" />
     <path
   style="fill:#007f00;fill-opacity:1"
   d="M -21,3943 C 32,3943 -28,3956 -28,3956 C -26,3947 -34,3943 -21,3943 z "
   class="fil3"
   id="61391008" />
     <path
   style="fill:#007f00;fill-opacity:1"
   d="M 64,3969 C 80,3965 64,3989 64,3989 C 51,3991 57,3971 64,3969 z "
   class="fil3"
   id="61391096" />
     <path
   style="fill:#007f00;fill-opacity:1"
   d="M -159,3982 C -112,3982 -165,3995 -165,3995 C -163,3986 -171,3982 -159,3982 z "
   class="fil3"
   id="61391184" />
     <path
   style="fill:#007f00;fill-opacity:1"
   d="M -60,4015 C -38,4017 -42,4037 -60,4034 C -60,4032 -60,4030 -60,4028 C -73,4028 -68,4014 -60,4015 z "
   class="fil3"
   id="61391272" />
     <path
   style="fill:#007f00;fill-opacity:1"
   d="M -28,4015 C -15,4016 -23,4024 -21,4034 L -34,4034 C -34,4032 -34,4030 -34,4028 C -46,4036 -40,4014 -28,4015 z "
   class="fil3"
   id="61391360" />
     <path
   style="fill:#007f00;fill-opacity:1"
   d="M -67,4041 C -65,4041 -63,4041 -60,4041 C -56,4058 -59,4059 -54,4074 L -41,4074 C -34,4070 -44,4063 -21,4061 C -23,4078 -21,4095 -21,4113 C -28,4111 -41,4113 -47,4113 L -47,4100 C -47,4100 -27,4100 -41,4093 C -61,4083 -52,4092 -74,4093 C -75,4065 -86,4055 -67,4041 z "
   class="fil3"
   id="61391448" />
     <path
   style="fill:#007f00;fill-opacity:1"
   d="M -2,4106 C 10,4106 4,4123 5,4132 L -8,4132 C -7,4123 -14,4106 -2,4106 z "
   class="fil3"
   id="61391536" />
     <path
   style="fill:#007f00;fill-opacity:1"
   d="M -165,4119 C -170,4122 -159,4146 -159,4146 C -161,4146 -163,4146 -165,4146 C -165,4148 -165,4150 -165,4152 C -186,4165 -178,4123 -165,4119 z "
   class="fil3"
   id="61391624" />
     <path
   style="fill:#007f00;fill-opacity:1"
   d="M 24,4119 C 81,4119 18,4132 18,4132 C 20,4123 12,4119 24,4119 z "
   class="fil3"
   id="61391712" />
     <path
   style="fill:#007f00;fill-opacity:1"
   d="M 83,4126 C 124,4126 77,4139 77,4139 C 79,4130 70,4126 83,4126 z "
   class="fil3"
   id="61391800" />
     <path
   style="fill:#007f00;fill-opacity:1"
   d="M 18,4146 C 31,4139 19,4177 18,4185 C 16,4185 14,4185 11,4185 C 11,4187 11,4189 11,4191 L -2,4191 C 2,4179 -4,4187 -8,4185 C 2,4165 -3,4155 18,4146 z "
   class="fil3"
   id="61391888" />
     <path
   style="fill:#007f00;fill-opacity:1"
   d="M 5,4204 C 25,4207 19,4239 5,4237 C 5,4235 5,4233 5,4231 C -13,4231 -10,4202 5,4204 z "
   class="fil3"
   id="61391976" />
     <path
   style="fill:#007f00;fill-opacity:1"
   d="M -74,4237 C -64,4242 -80,4250 -80,4250 C -79,4245 -84,4232 -74,4237 z "
   class="fil3"
   id="61392064" />
     <path
   style="fill:#007f00;fill-opacity:1"
   d="M -47,4276 C -41,4292 -55,4276 -41,4283 C -41,4290 -42,4302 -41,4309 C -28,4303 -39,4312 -34,4315 C -32,4315 -30,4315 -28,4315 C -28,4315 -34,4327 -34,4328 C -40,4328 -49,4327 -54,4328 L -60,4296 C -58,4296 -56,4296 -54,4296 C -54,4292 -55,4280 -54,4276 C -52,4276 -49,4276 -47,4276 z "
   class="fil3"
   id="61392152" />
     <path
   style="fill:#007f00;fill-opacity:1"
   d="M -87,4309 C -67,4307 -62,4328 -74,4322 C -74,4324 -74,4326 -74,4328 C -77,4326 -89,4328 -93,4328 C -92,4318 -100,4310 -87,4309 z "
   class="fil3"
   id="61392240" />
     <path
   style="fill:#007f00;fill-opacity:1"
   d="M -21,4328 L -8,4348 C -3,4351 12,4348 18,4348 L 18,4361 C 16,4362 5,4368 5,4368 C 1,4380 9,4395 5,4407 C 4,4409 -8,4412 -8,4413 C -7,4413 -14,4401 -15,4400 C -18,4412 -21,4387 -21,4387 C 0,4397 -10,4365 -8,4355 C -13,4353 -23,4355 -28,4355 L -28,4342 C -30,4342 -32,4342 -34,4342 C -32,4340 -39,4326 -28,4335 C -18,4330 -40,4324 -21,4328 z "
   class="fil3"
   id="61392328" />
     <path
   style="fill:#007f00;fill-opacity:1"
   d="M -54,4335 C -44,4340 -60,4348 -60,4348 C -59,4344 -65,4329 -54,4335 z "
   class="fil3"
   id="61392416" />
     <path
   style="fill:#007f00;fill-opacity:1"
   d="M -41,4387 C -34,4389 -29,4403 -41,4400 C -41,4398 -41,4396 -41,4394 C -49,4394 -53,4384 -41,4387 z "
   class="fil3"
   id="61392504" />
     <path
   style="fill:#007f00;fill-opacity:1"
   d="M -54,4394 L -54,4407 C -76,4412 -63,4396 -54,4394 z "
   class="fil3"
   id="61392592" />
     <path
   style="fill:#007f00;fill-opacity:1"
   d="M -15,4433 C 21,4431 -14,4443 5,4453 C 5,4455 5,4457 5,4459 C 10,4461 21,4456 24,4459 C 28,4462 20,4482 24,4485 C 3,4485 2,4474 -15,4479 C -17,4479 -11,4486 -28,4485 C -24,4472 -19,4459 -21,4459 L -8,4459 C -8,4457 -8,4455 -8,4453 L -21,4453 C -20,4443 -27,4434 -15,4433 z "
   class="fil3"
   id="61392680" />
     <path
   style="fill:#007f00;fill-opacity:1"
   d="M -67,4453 C -53,4457 -55,4455 -41,4459 C -44,4470 -34,4492 -54,4485 L -67,4466 C -69,4466 -71,4466 -74,4466 L -74,4453 C -71,4453 -69,4453 -67,4453 z "
   class="fil3"
   id="61392768" />
     <path
   style="fill:#007f00;fill-opacity:1"
   d="M 318,4498 C 348,4497 322,4506 332,4511 C 327,4510 317,4511 312,4511 C 314,4502 305,4499 318,4498 z "
   class="fil3"
   id="61392856" />
     <path
   style="fill:#007f00;fill-opacity:1"
   d="M -54,4505 C -55,4516 -54,4508 -47,4511 C -47,4521 -49,4535 -47,4544 C -66,4540 -45,4547 -54,4551 C -60,4553 -68,4549 -74,4551 C -68,4547 -69,4522 -74,4518 L -54,4505 z "
   class="fil3"
   id="60589552" />
     <path
   style="fill:#007f00;fill-opacity:1"
   d="M -15,4505 L -2,4505 C -2,4507 -3,4523 -2,4525 C 1,4526 17,4523 18,4525 C 23,4536 14,4551 18,4564 C 16,4564 5,4570 5,4570 C 5,4570 -8,4551 -8,4551 L -21,4551 L -21,4538 C -26,4535 -31,4542 -34,4544 C -34,4542 -34,4540 -34,4538 C -37,4538 -39,4538 -41,4538 C -41,4536 -40,4519 -41,4518 L -28,4518 C -27,4517 -23,4507 -21,4505 C -19,4505 -17,4505 -15,4505 z "
   class="fil3"
   id="60589640" />
     <path
   style="fill:#007f00;fill-opacity:1"
   d="M -60,4583 C -60,4586 -60,4588 -60,4590 C -53,4587 -41,4597 -67,4603 C -67,4601 -67,4599 -67,4596 C -79,4605 -71,4581 -60,4583 z "
   class="fil3"
   id="60589728" />
     <path
   style="fill:#007f00;fill-opacity:1"
   d="M -60,4609 C -38,4606 -49,4632 -54,4629 C -54,4631 -54,4634 -54,4636 L -67,4636 C -68,4635 -73,4625 -74,4622 C -71,4622 -69,4622 -67,4622 C -64,4612 -74,4611 -60,4609 z "
   class="fil3"
   id="60589816" />
     <path
   style="fill:#007f00;fill-opacity:1"
   d="M -21,4675 C -9,4675 -17,4685 -15,4694 L -28,4694 C -26,4685 -34,4675 -21,4675 z "
   class="fil3"
   id="60589904" />
     <path
   style="fill:#007f00;fill-opacity:1"
   d="M -21,4714 C -9,4713 -16,4725 -15,4734 C -62,4733 -30,4724 -41,4721 L -28,4721 C -8,4714 -48,4716 -21,4714 z "
   class="fil3"
   id="60589992" />
     <path
   style="fill:#007f00;fill-opacity:1"
   d="M -2,4727 C 50,4727 -8,4740 -8,4740 C -6,4731 -15,4727 -2,4727 z "
   class="fil3"
   id="60590080" />
     <path
   style="fill:#007f00;fill-opacity:1"
   d="M -152,5348 C -138,5350 -143,5351 -132,5354 C -132,5357 -132,5359 -132,5361 C -135,5361 -137,5361 -139,5361 C -144,5365 -131,5372 -145,5367 C -145,5370 -145,5372 -145,5374 C -143,5374 -141,5374 -139,5374 C -135,5389 -144,5374 -132,5380 C -132,5384 -133,5396 -132,5400 L -145,5400 C -150,5391 -148,5392 -152,5380 C -154,5380 -156,5380 -159,5380 C -160,5377 -154,5332 -152,5348 z "
   class="fil3"
   id="60590168" />
     <path
   style="fill:#007f00;fill-opacity:1"
   d="M -139,5407 C -129,5399 -133,5434 -132,5439 L -145,5439 C -145,5439 -160,5401 -145,5413 C -140,5410 -153,5400 -139,5407 z "
   class="fil3"
   id="60590256" />
     <path
   style="fill:#007f00;fill-opacity:1"
   d="M -80,5439 C -81,5439 -80,5463 -80,5465 C -111,5478 -98,5446 -80,5439 z "
   class="fil3"
   id="60590344" />
     <path
   style="fill:#007f00;fill-opacity:1"
   d="M -152,5544 C -144,5543 -134,5544 -126,5544 C -140,5551 -110,5554 -132,5550 C -132,5553 -132,5555 -132,5557 C -137,5555 -148,5557 -152,5557 C -153,5555 -159,5544 -159,5544 C -156,5544 -154,5544 -152,5544 z "
   class="fil3"
   id="60590432" />
     <path
   style="fill:#007f00;fill-opacity:1"
   d="M -171,5192 C -157,5199 -180,5210 -180,5210 C -179,5205 -185,5185 -171,5192 z "
   class="fil3"
   id="60590520" />
     <path
   style="fill:#007f00;fill-opacity:1"
   d="M -180,5136 C -167,5143 -190,5155 -190,5155 C -188,5149 -194,5129 -180,5136 z "
   class="fil3"
   id="60590608" />
     <path
   style="fill:#007f00;fill-opacity:1"
   d="M 165,4838 C 193,4831 165,4856 165,4856 C 139,4865 149,4841 165,4838 z "
   class="fil3"
   id="60590696" />
     <path
   style="fill:#007f00;fill-opacity:1"
   d="M 211,4791 C 208,4812 211,4835 211,4856 C 200,4850 201,4864 202,4847 C 195,4881 193,4819 193,4819 C 196,4819 199,4819 202,4819 C 203,4814 202,4797 202,4791 C 205,4791 208,4791 211,4791 z "
   class="fil3"
   id="60590784" />
     <path
   style="fill:#007f00;fill-opacity:1"
   d="M 165,4754 C 165,4754 188,4808 165,4791 L 165,4772 C 144,4772 159,4749 165,4754 z "
   class="fil3"
   id="60590872" />
     <path
   style="fill:#007f00;fill-opacity:1"
   d="M -22,4633 C -4,4638 11,4679 -22,4670 L -22,4651 C -59,4660 -30,4630 -22,4633 z "
   class="fil3"
   id="60590960" />
     <path
   style="fill:#007f00;fill-opacity:1"
   d="M -199,4446 C -205,4450 -193,4479 -199,4483 C -220,4501 -214,4453 -199,4446 z "
   class="fil3"
   id="60591048" />
     <path
   style="fill:#007f00;fill-opacity:1"
   d="M -106,4390 C -100,4426 -102,4446 -96,4483 C -100,4483 -102,4483 -106,4483 C -104,4512 -109,4539 -106,4567 C -102,4567 -99,4567 -96,4567 C -96,4586 -96,4605 -96,4623 C -100,4623 -102,4623 -106,4623 C -106,4682 -106,4742 -106,4800 L -87,4800 L -78,4782 L -59,4782 C -59,4779 -59,4776 -59,4772 C -56,4772 -53,4772 -50,4772 C -53,4783 -47,4789 -50,4800 C -53,4800 -56,4800 -59,4800 L -59,4819 C -62,4819 -65,4819 -68,4819 C -69,4821 -59,4875 -59,4875 C -81,4886 -60,4910 -59,4922 C -79,4922 -68,4985 -59,4977 C -59,4981 -59,4984 -59,4987 C -62,4987 -65,4987 -68,4987 C -68,5027 -68,5068 -68,5108 C -82,5115 -72,5114 -87,5117 C -87,5120 -87,5124 -87,5127 C -84,5127 -81,5127 -78,5127 C -74,5127 -71,5127 -68,5127 C -68,5129 -70,5153 -68,5155 C -91,5166 -69,5189 -68,5201 C -88,5201 -77,5264 -68,5257 C -68,5260 -68,5263 -68,5266 C -72,5266 -74,5266 -78,5266 C -78,5306 -78,5349 -78,5388 C -74,5388 -71,5388 -68,5388 C -68,5391 -68,5394 -68,5397 C -85,5405 -73,5431 -78,5434 C -86,5438 -106,5434 -115,5434 C -116,5409 -93,5412 -106,5406 C -109,5406 -112,5406 -115,5406 C -117,5381 -107,5350 -124,5341 C -124,5338 -124,5335 -124,5332 C -121,5332 -118,5332 -115,5332 C -115,5316 -111,5300 -115,5285 C -118,5285 -121,5285 -124,5285 L -124,5266 C -121,5266 -118,5266 -115,5266 C -115,5250 -112,5235 -115,5220 L -134,5210 C -138,5199 -132,5185 -134,5173 C -137,5173 -140,5173 -143,5173 C -143,5169 -142,5151 -143,5145 C -122,5151 -118,5128 -115,5127 C -118,5127 -121,5127 -124,5127 C -124,5123 -124,5120 -124,5117 C -129,5115 -138,5111 -143,5108 C -130,5102 -168,5099 -171,5099 C -157,5109 -186,5144 -180,5117 C -183,5117 -186,5117 -190,5117 C -190,5096 -187,5072 -190,5052 C -172,5056 -183,5043 -180,5033 L -162,5033 C -163,5034 -162,5058 -162,5061 C -158,5061 -155,5061 -152,5061 C -152,5058 -152,5055 -152,5052 C -149,5052 -146,5052 -143,5052 L -143,5033 C -140,5033 -137,5033 -134,5033 L -134,5015 C -145,5012 -151,5018 -162,5015 C -183,5007 -138,4998 -171,5005 C -190,5009 -149,5017 -180,5015 C -184,4993 -172,5014 -190,5005 C -190,4987 -187,4967 -190,4949 C -193,4949 -196,4949 -199,4949 C -200,4932 -201,4946 -190,4940 C -189,4926 -188,4927 -199,4922 C -199,4918 -199,4915 -199,4912 C -196,4912 -192,4912 -190,4912 C -190,4894 -191,4874 -190,4856 C -193,4856 -196,4856 -199,4856 C -194,4825 -192,4809 -190,4782 L -208,4782 C -205,4767 -191,4766 -190,4763 C -175,4721 -194,4659 -190,4614 C -186,4614 -183,4614 -180,4614 C -180,4597 -176,4574 -180,4558 C -183,4558 -186,4558 -190,4558 L -190,4539 C -186,4539 -183,4539 -180,4539 C -180,4515 -173,4478 -180,4455 C -180,4455 -197,4445 -199,4437 C -184,4449 -198,4421 -180,4427 L -180,4446 C -174,4445 -157,4461 -152,4465 C -142,4441 -166,4467 -143,4455 C -143,4446 -147,4426 -143,4418 L -124,4418 L -124,4400 C -122,4398 -106,4391 -106,4390 z "
   class="fil3"
   id="60591136" />
     <path
   style="fill:#007f00;fill-opacity:1"
   d="M -143,4390 C -118,4384 -143,4418 -143,4418 C -160,4421 -154,4393 -143,4390 z "
   class="fil3"
   id="60591224" />
     <path
   style="fill:#007f00;fill-opacity:1"
   d="M -162,4381 C -165,4392 -159,4397 -162,4409 C -165,4409 -168,4409 -171,4409 L -171,4427 C -174,4427 -177,4427 -180,4427 C -180,4416 -184,4400 -180,4390 L -162,4381 z "
   class="fil3"
   id="60591312" />
     <path
   style="fill:#007f00;fill-opacity:1"
   d="M 99,3859 C 112,3865 90,3878 90,3878 C 92,3872 85,3852 99,3859 z "
   class="fil3"
   id="60591400" />
     <path
   style="fill:#007f00;fill-opacity:1"
   d="M -22,3831 C -22,3834 -22,3837 -22,3840 C -9,3830 -14,3862 -12,3868 C -39,3872 -33,3873 -50,3878 C -50,3881 -50,3884 -50,3887 C -53,3887 -56,3887 -59,3887 C -59,3883 -61,3863 -59,3859 L -40,3859 L -40,3840 C -36,3838 -23,3833 -22,3831 z "
   class="fil3"
   id="60591488" />
     <path
   style="fill:#007f00;fill-opacity:1"
   d="M 44,3812 C 57,3819 34,3831 34,3831 C 36,3825 30,3805 44,3812 z "
   class="fil3"
   id="60591576" />
     <path
   style="fill:#007f00;fill-opacity:1"
   d="M -12,3784 C -20,3787 -4,3820 -3,3822 C -5,3820 -18,3829 -22,3831 C -21,3821 -26,3777 -12,3784 z "
   class="fil3"
   id="60591664" />
     <path
   style="fill:#007f00;fill-opacity:1"
   d="M 16,3719 C 16,3720 43,3719 44,3719 C 44,3722 43,3746 44,3747 C 47,3747 50,3747 53,3747 C 53,3747 49,3759 44,3775 C 40,3775 37,3775 34,3775 L 34,3756 C 30,3756 11,3758 6,3756 C 13,3787 -4,3765 -12,3766 C -12,3753 -9,3740 -12,3728 C -2,3725 14,3724 16,3719 z "
   class="fil3"
   id="60591752" />
     <path
   style="fill:#007f00;fill-opacity:1"
   d="M -31,3700 C 9,3699 -25,3712 -12,3719 C -21,3716 -31,3719 -40,3719 C -37,3707 -48,3701 -31,3700 z "
   class="fil3"
   id="60591840" />
     <path
   style="fill:#007f00;fill-opacity:1"
   d="M 53,3654 C 53,3657 53,3660 53,3663 C 69,3671 58,3680 62,3700 L 44,3700 C 44,3700 25,3647 44,3663 C 47,3661 38,3646 53,3654 z "
   class="fil3"
   id="60591928" />
     <path
   style="fill:#007f00;fill-opacity:1"
   d="M 165,3505 C 189,3508 175,3506 202,3514 C 202,3517 202,3520 202,3523 C 189,3523 176,3527 165,3523 C 165,3520 165,3517 165,3514 C 148,3514 154,3503 165,3505 z "
   class="fil3"
   id="60592016" />
     <path
   style="fill:#007f00;fill-opacity:1"
   d="M -50,3467 C -54,3487 -54,3491 -59,3514 C -62,3514 -65,3514 -68,3514 C -68,3517 -68,3520 -68,3523 C -65,3523 -62,3523 -59,3523 L -59,3542 C -62,3542 -65,3542 -68,3542 C -71,3559 -69,3555 -59,3561 C -59,3564 -59,3567 -59,3570 C -78,3579 -65,3629 -68,3654 C -72,3654 -74,3654 -78,3654 C -78,3668 -76,3677 -78,3691 C -81,3691 -84,3691 -87,3691 C -88,3698 -87,3714 -87,3719 C -84,3719 -81,3719 -78,3719 C -75,3736 -77,3758 -78,3775 C -81,3775 -84,3775 -87,3775 C -87,3801 -86,3824 -87,3850 C -99,3850 -124,3843 -134,3850 C -132,3828 -140,3848 -124,3840 C -124,3811 -126,3786 -124,3756 C -123,3755 -106,3747 -106,3747 C -104,3730 -104,3743 -115,3738 C -115,3727 -113,3720 -115,3710 C -118,3710 -121,3710 -124,3710 C -124,3707 -124,3704 -124,3700 C -105,3696 -120,3681 -115,3663 C -112,3663 -109,3663 -106,3663 C -105,3658 -106,3641 -106,3635 C -102,3635 -99,3635 -96,3635 C -93,3620 -94,3594 -96,3579 C -100,3579 -102,3579 -106,3579 C -106,3568 -107,3562 -106,3551 C -102,3551 -99,3551 -96,3551 C -95,3540 -96,3534 -96,3523 C -93,3523 -90,3523 -87,3523 C -85,3509 -87,3500 -87,3486 C -99,3480 -97,3494 -96,3477 C -83,3474 -73,3481 -59,3477 C -59,3473 -59,3471 -59,3467 C -56,3467 -53,3467 -50,3467 z "
   class="fil3"
   id="60592104" />
     <path
   style="fill:#007f00;fill-opacity:1"
   d="M 81,3365 C 115,3385 92,3404 90,3439 C 87,3439 84,3439 81,3439 C 78,3454 81,3453 90,3458 C 103,3465 71,3477 71,3477 C 73,3480 81,3505 81,3505 L 62,3505 C 61,3510 62,3528 62,3533 C 48,3524 47,3554 44,3561 C 62,3568 62,3564 81,3570 C 81,3573 81,3576 81,3579 C 78,3579 75,3579 71,3579 C 71,3585 68,3613 71,3617 C 20,3618 101,3621 62,3607 C 50,3603 29,3607 16,3607 C 16,3610 16,3614 16,3617 L -3,3617 C -3,3613 -3,3610 -3,3607 C -20,3606 -2,3613 -31,3617 C -30,3600 -31,3587 -31,3570 C -15,3562 -25,3581 -22,3561 C -33,3555 -32,3568 -31,3551 C -28,3550 -6,3531 -12,3551 C -9,3551 -6,3551 -3,3551 L -3,3533 L 16,3533 C 13,3518 27,3529 25,3505 C 22,3505 19,3505 16,3505 C 14,3497 16,3485 16,3477 C -2,3468 10,3489 6,3467 C 22,3460 29,3462 53,3458 L 53,3439 C 53,3439 37,3431 34,3430 C 34,3419 37,3412 34,3402 C 48,3390 41,3410 44,3411 L 62,3411 C 68,3395 68,3380 71,3365 C 75,3365 78,3365 81,3365 z "
   class="fil3"
   id="60592192" />
     <path
   style="fill:#007f00;fill-opacity:1"
   d="M 155,3356 C 172,3352 181,3368 165,3365 C 165,3368 165,3371 165,3374 C 145,3373 126,3381 146,3365 C 171,3345 117,3362 155,3356 z "
   class="fil3"
   id="60592280" />
     <path
   style="fill:#007f00;fill-opacity:1"
   d="M 90,3337 C 104,3344 81,3356 81,3356 C 82,3350 76,3330 90,3337 z "
   class="fil3"
   id="60592368" />
     <path
   style="fill:#007f00;fill-opacity:1"
   d="M 99,3309 C 121,3303 99,3313 109,3318 C 106,3318 103,3318 99,3318 C 99,3321 99,3325 99,3328 C 80,3331 91,3311 99,3309 z "
   class="fil3"
   id="60592456" />
     <path
   style="fill:#007f00;fill-opacity:1"
   d="M 230,3281 C 251,3275 230,3285 239,3290 C 236,3290 233,3290 230,3290 C 230,3293 230,3297 230,3300 C 211,3303 222,3283 230,3281 z "
   class="fil3"
   id="60592544" />
     <path
   style="fill:#007f00;fill-opacity:1"
   d="M 239,3225 C 242,3225 246,3225 249,3225 C 244,3245 242,3249 239,3272 C 222,3272 228,3222 239,3225 z "
   class="fil3"
   id="60592632" />
     <path
   style="fill:#007f00;fill-opacity:1"
   d="M 249,3141 C 274,3134 249,3169 249,3169 C 232,3172 238,3144 249,3141 z "
   class="fil3"
   id="60592720" />
     <path
   style="fill:#007f00;fill-opacity:1"
   d="M 118,3076 C 118,3079 118,3082 118,3085 C 130,3091 129,3093 137,3104 C 130,3108 117,3101 109,3104 C 109,3107 109,3110 109,3113 C 97,3119 93,3125 81,3132 C 81,3137 83,3155 81,3160 C 93,3160 106,3155 118,3160 C 120,3157 137,3132 137,3132 C 140,3132 143,3132 146,3132 C 155,3118 145,3107 155,3104 L 174,3104 L 174,3085 C 189,3077 214,3083 230,3076 C 229,3078 213,3103 211,3104 C 208,3104 205,3104 202,3104 C 196,3119 218,3125 211,3132 C 195,3147 202,3146 193,3169 C 189,3169 187,3169 183,3169 L 183,3188 C 180,3188 177,3188 174,3188 C 172,3196 177,3208 174,3216 C 146,3217 147,3205 137,3206 C 137,3210 137,3213 137,3216 C 129,3217 117,3212 109,3216 C -13,3258 235,3203 99,3225 C 104,3246 109,3272 109,3272 C 95,3280 81,3253 81,3253 C 58,3248 84,3270 62,3262 C 62,3266 62,3269 62,3272 C 59,3272 56,3272 53,3272 C 53,3281 56,3291 53,3300 L 34,3309 C 36,3294 43,3291 44,3290 C 48,3269 41,3238 44,3216 L 62,3216 C 62,3212 62,3210 62,3206 C 62,3203 62,3200 62,3197 C 55,3197 41,3199 34,3197 C 34,3194 34,3191 34,3188 C 37,3188 41,3188 44,3188 C 44,3182 46,3142 44,3141 L 62,3141 C 69,3129 65,3103 71,3095 L 90,3095 C 90,3091 90,3088 90,3085 C 105,3080 108,3083 118,3076 z "
   class="fil3"
   id="60592808" />
     <path
   style="fill:#007f00;fill-opacity:1"
   d="M 221,3020 C 213,3021 223,3031 230,3029 C 230,3026 230,3023 230,3020 C 233,3020 236,3020 239,3020 C 238,3021 239,3045 239,3048 C 231,3048 219,3044 211,3048 C 211,3051 211,3054 211,3057 C 191,3061 203,3021 221,3020 z "
   class="fil3"
   id="60592896" />
     <path
   style="fill:#007f00;fill-opacity:1"
   d="M 249,2973 C 262,2980 239,2992 239,2992 C 241,2986 235,2966 249,2973 z "
   class="fil3"
   id="60592984" />
     <path
   style="fill:#007f00;fill-opacity:1"
   d="M 16,2964 C 8,3016 8,3044 16,3095 C 10,3098 -7,3100 -12,3104 C -28,3113 -3,3113 -3,3113 C -7,3152 -7,3153 -12,3188 C -9,3188 -6,3188 -3,3188 C -3,3191 -3,3194 -3,3197 L -22,3206 C -25,3215 -22,3225 -22,3234 C -23,3217 -31,3244 -31,3244 C -28,3244 -25,3244 -22,3244 C -21,3261 -20,3247 -31,3253 C -28,3273 -38,3254 -22,3262 C -22,3277 -23,3294 -22,3309 L -40,3309 C -40,3312 -40,3315 -40,3318 C -44,3318 -46,3318 -50,3318 L -50,3337 C -37,3340 -30,3330 -31,3346 C -34,3346 -37,3346 -40,3346 C -42,3355 -23,3361 -31,3365 C -49,3374 -46,3427 -50,3458 L -68,3458 C -70,3457 -76,3443 -78,3439 C -81,3439 -84,3439 -87,3439 C -90,3437 -67,3411 -87,3421 C -83,3409 -102,3412 -96,3393 L -78,3393 C -73,3377 -72,3360 -68,3346 C -65,3346 -62,3346 -59,3346 C -56,3329 -58,3342 -68,3337 C -66,3306 -70,3281 -59,3262 C -59,3262 -38,3253 -50,3244 L -68,3244 C -71,3234 -50,3229 -59,3225 L -78,3225 C -78,3211 -81,3201 -78,3188 C -76,3178 -81,3189 -50,3178 L -50,3160 C -46,3160 -43,3160 -40,3160 C -36,3150 -59,3145 -50,3141 C -46,3141 -43,3141 -40,3141 C -35,3107 -38,3099 -31,3067 C -34,3067 -37,3067 -40,3067 L -40,3048 C -37,3048 -34,3048 -31,3048 C -28,3046 -23,3032 -22,3029 C -19,3029 -15,3029 -12,3029 C -7,3008 -30,3007 -22,2983 C -22,2982 11,2968 16,2964 z "
   class="fil3"
   id="60593072" />
     <path
   style="fill:#007f00;stroke:#ffffff;stroke-width:14;fill-opacity:1"
   d="M 221,2945 C 234,2951 226,2948 239,2955 C 237,2962 246,2980 230,2973 C 230,2970 230,2967 230,2964 C 227,2964 224,2964 221,2964 C 221,2964 197,2935 221,2945"
   class="fil4 str0"
   id="60593160" />
     <path
   style="fill:#007f00;fill-opacity:1"
   d="M 109,2945 C 119,2954 121,2949 137,2955 C 140,2982 136,2963 155,2973 C 149,2992 153,3000 146,3020 C 101,3151 160,2884 137,3029 C 127,3029 107,3025 99,3029 L 99,3048 C 86,3055 93,3050 81,3057 C 78,3041 81,3018 81,3001 L 62,3001 L 62,3020 C 59,3020 56,3020 53,3020 C 54,3018 51,2993 53,2992 C 57,2989 75,2992 81,2992 C 85,2985 78,2972 81,2964 L 109,2945 z "
   class="fil3"
   id="60593248" />
     <path
   style="fill:#007f00;fill-opacity:1"
   d="M 25,2945 C 38,2952 16,2964 16,2964 C 17,2958 11,2938 25,2945 z "
   class="fil3"
   id="60593336" />
     <path
   style="fill:#007f00;fill-opacity:1"
   d="M 267,2917 C 281,2924 258,2936 258,2936 C 259,2930 253,2910 267,2917 z "
   class="fil3"
   id="60593424" />
     <path
   style="fill:#007f00;fill-opacity:1"
   d="M 16,2834 C 16,2837 16,2840 16,2843 L 34,2843 C 41,2813 42,2852 44,2852 C 30,2842 35,2861 34,2861 C 31,2861 28,2861 25,2861 C 31,2886 14,2861 34,2871 C 34,2885 32,2894 34,2908 C 37,2908 41,2908 44,2908 C 40,2909 29,2948 25,2917 C 25,2920 41,2944 34,2945 C -7,2951 54,2946 25,2936 C 14,2932 8,2939 -3,2936 C -3,2933 -3,2930 -3,2927 C -5,2934 -21,2914 -12,2908 L 6,2908 C 7,2881 -15,2886 -3,2880 C 15,2871 4,2856 6,2834 C 9,2834 13,2834 16,2834 z "
   class="fil3"
   id="60593512" />
     <path
   style="fill:#007f00;fill-opacity:1"
   d="M 295,2600 C 295,2604 295,2607 295,2610 C 279,2618 289,2628 286,2647 C 288,2643 310,2649 314,2647 C 319,2644 309,2621 332,2610 C 332,2607 332,2604 332,2600 C 318,2600 310,2600 295,2600 z "
   class="fil3"
   id="60593600" />
     <path
   style="fill:#007f00;fill-opacity:1"
   d="M 370,2545 C 363,2565 366,2562 360,2582 C 357,2582 354,2582 351,2582 C 347,2596 355,2605 351,2619 C 348,2619 345,2619 342,2619 C 342,2619 325,2670 342,2656 C 328,2665 367,2667 370,2666 C 370,2663 370,2660 370,2656 C 373,2656 376,2656 379,2656 C 382,2654 379,2624 379,2619 C 376,2619 373,2619 370,2619 C 369,2615 378,2591 379,2600 C 408,2586 347,2593 388,2591 C 390,2578 398,2530 388,2554 C 388,2551 388,2548 388,2545 L 370,2545 z "
   class="fil3"
   id="60593688" />
     <path
   style="fill:#007f00;fill-opacity:1"
   d="M 174,2535 L 165,2573 C 135,2584 154,2552 146,2545 C 163,2539 161,2542 174,2535 z "
   class="fil3"
   id="60593776" />
     <path
   style="fill:#007f00;fill-opacity:1"
   d="M 174,2489 C 182,2491 193,2511 174,2507 C 174,2504 174,2501 174,2498 C 160,2498 160,2485 174,2489 z "
   class="fil3"
   id="60593864" />
     <path
   style="fill:#007f00;fill-opacity:1"
   d="M 342,2339 C 340,2350 323,2358 323,2358 C 320,2368 323,2376 323,2386 C 326,2386 330,2386 332,2386 C 334,2405 325,2407 314,2414 C 305,2419 325,2423 323,2433 C 323,2433 290,2451 323,2451 C 323,2455 323,2458 323,2461 C 320,2461 317,2461 314,2461 C 307,2479 310,2465 305,2489 C 331,2480 298,2492 314,2498 C 325,2502 330,2495 342,2498 C 343,2486 360,2479 360,2479 C 365,2463 354,2446 351,2433 L 370,2433 L 370,2414 C 359,2450 360,2377 360,2377 L 379,2377 C 379,2372 377,2354 379,2349 C 360,2343 356,2349 342,2339 z "
   class="fil3"
   id="60593952" />
     <path
   style="fill:#007f00;fill-opacity:1"
   d="M 416,2097 C 416,2100 416,2104 416,2106 L 398,2106 C 398,2110 398,2113 398,2116 C 375,2125 353,2171 398,2153 L 416,2125 L 435,2125 C 427,2118 445,2087 416,2097 z "
   class="fil3"
   id="60594040" />
     <path
   style="fill:#007f00;fill-opacity:1"
   d="M 985,261 C 985,264 985,267 985,270 L 1004,270 C 1003,270 1003,261 985,261 z "
   class="fil3"
   id="60594128" />
     <path
   style="fill:#007f00;fill-opacity:1"
   d="M 938,177 C 938,180 938,183 938,186 L 957,186 C 957,186 957,177 938,177 z "
   class="fil3"
   id="60594216" />
     <path
   style="fill:#007f00;fill-opacity:1"
   d="M 668,130 C 700,107 677,168 677,168 C 643,173 652,121 668,130 z "
   class="fil3"
   id="60594304" />
     <path
   style="fill:#007f00;fill-opacity:1"
   d="M 696,93 C 712,93 703,107 705,121 L 687,121 C 689,107 679,93 696,93 z "
   class="fil3"
   id="60594392" />
     <path
   style="fill:#007f00;fill-opacity:1"
   d="M 733,65 C 748,60 735,83 733,93 C 703,101 715,71 733,65 z "
   class="fil3"
   id="60594480" />
     <path
   style="fill:#007f00;fill-opacity:1"
   d="M 836,0 C 845,0 855,0 864,0 C 866,6 873,37 873,37 C 881,40 892,21 910,28 C 905,45 908,57 892,65 C 885,68 903,75 901,84 L 920,84 C 920,87 920,90 920,93 L 938,93 C 942,95 930,108 929,112 C 934,115 951,117 957,121 L 966,140 L 985,140 C 986,141 991,172 994,177 L 1022,196 L 1022,214 C 1016,214 1001,217 994,214 C 994,217 994,221 994,224 L 1013,224 C 1046,235 978,236 1022,233 C 1022,230 1022,227 1022,224 L 1041,224 C 1044,242 1035,244 1050,252 C 1051,269 1053,255 1041,261 C 1041,275 1039,284 1041,298 C 1044,298 1047,298 1050,298 C 1053,319 1044,327 1060,335 C 1060,339 1060,342 1060,345 C 1051,349 1046,349 1050,363 L 1069,373 C 1079,389 1070,418 1078,438 C 1081,445 1104,443 1106,447 C 1111,457 1104,473 1106,485 C 1109,485 1113,485 1115,485 C 1116,491 1115,508 1115,512 C 1119,512 1122,512 1125,512 C 1128,535 1120,542 1115,559 C 1119,559 1122,559 1125,559 C 1124,566 1110,575 1115,578 C 1126,583 1128,600 1125,615 C 1125,615 1116,616 1115,634 C 1126,639 1127,625 1125,643 C 1122,643 1119,643 1115,643 C 1115,657 1117,666 1115,680 C 1112,680 1109,680 1106,680 C 1103,696 1110,721 1106,736 C 1103,736 1100,736 1097,736 C 1091,763 1095,766 1088,792 C 1084,792 1081,792 1078,792 C 1074,815 1088,807 1088,829 C 1084,829 1081,829 1078,829 C 1071,873 1074,893 1069,941 C 1066,941 1063,941 1060,941 C 1051,945 1071,950 1069,960 L 1050,969 C 1046,980 1052,994 1050,1007 C 1047,1007 1044,1007 1041,1007 C 1035,1040 1039,1047 1032,1081 C 1028,1081 1025,1081 1022,1081 C 1019,1099 1025,1119 1022,1137 C 1019,1137 1016,1137 1013,1137 C 1012,1158 1027,1153 1022,1174 C 1019,1174 1016,1174 1013,1174 L 1013,1193 C 1010,1193 1007,1193 1004,1193 C 994,1218 1002,1229 994,1258 C 991,1258 988,1258 985,1258 C 985,1269 987,1275 985,1286 C 982,1286 979,1286 976,1286 C 973,1300 979,1309 976,1323 C 972,1323 970,1323 966,1323 C 962,1347 970,1374 966,1398 C 963,1398 960,1398 957,1398 C 951,1431 954,1439 948,1473 C 944,1473 942,1473 938,1473 C 935,1489 943,1512 938,1529 C 935,1529 932,1529 929,1529 C 923,1549 927,1547 920,1566 C 917,1566 914,1566 910,1566 C 906,1582 910,1605 910,1622 C 907,1622 904,1622 901,1622 C 901,1625 901,1628 901,1631 C 901,1632 923,1635 920,1650 L 901,1650 C 898,1658 903,1669 901,1678 C 898,1678 895,1678 892,1678 L 892,1696 C 889,1696 886,1696 882,1696 C 879,1708 895,1723 892,1724 C 875,1732 888,1732 882,1752 C 879,1752 876,1752 873,1752 C 868,1800 873,1828 864,1873 C 861,1873 858,1873 854,1873 C 854,1880 855,1896 854,1901 C 851,1901 848,1901 845,1901 C 838,1933 841,1960 836,1995 C 833,1995 830,1995 827,1995 L 827,2013 C 830,2013 833,2013 836,2013 C 914,2074 752,1976 845,2023 C 845,2026 845,2029 845,2032 L 817,2041 C 816,2056 817,2073 817,2088 C 801,2096 810,2077 808,2097 C 816,2101 821,2090 817,2106 C 814,2106 811,2106 808,2106 L 808,2125 C 805,2125 802,2125 799,2125 C 796,2138 809,2134 808,2153 C 805,2153 802,2153 799,2153 C 799,2159 799,2176 799,2181 C 795,2181 792,2181 789,2181 C 786,2196 791,2212 789,2228 C 786,2228 783,2228 780,2228 C 780,2242 782,2251 780,2265 C 777,2265 774,2265 771,2265 C 767,2283 774,2302 771,2321 C 767,2321 764,2321 761,2321 C 756,2358 757,2369 752,2405 C 749,2405 746,2405 743,2405 C 740,2422 750,2454 743,2470 L 724,2470 C 724,2473 724,2476 724,2479 C 700,2491 692,2514 668,2526 C 668,2529 668,2532 668,2535 C 665,2535 662,2535 659,2535 C 656,2546 655,2581 659,2591 C 661,2599 673,2590 677,2610 C 681,2610 684,2610 687,2610 C 693,2628 699,2656 696,2684 C 693,2684 690,2684 687,2684 C 687,2699 691,2718 687,2731 L 668,2740 C 662,2761 681,2754 677,2768 L 659,2768 C 654,2786 662,2806 659,2824 C 655,2824 653,2824 649,2824 C 649,2838 651,2847 649,2861 C 646,2861 643,2861 640,2861 C 639,2873 652,2887 649,2889 C 640,2898 644,2891 640,2908 C 637,2908 634,2908 631,2908 C 626,2944 631,2984 631,3020 C 641,3025 642,3013 640,3029 C 637,3029 634,3029 631,3029 L 631,3048 C 628,3048 625,3048 621,3048 C 613,3079 621,3098 612,3132 C 609,3132 606,3132 603,3132 L 603,3150 C 600,3150 597,3150 593,3150 C 586,3170 591,3178 584,3197 C 581,3197 578,3197 575,3197 C 571,3213 579,3238 575,3253 C 572,3253 569,3253 565,3253 L 565,3272 C 538,3285 570,3253 556,3281 C 553,3281 550,3281 547,3281 C 542,3298 548,3319 547,3337 C 544,3337 541,3337 538,3337 C 536,3354 535,3340 547,3346 C 544,3366 554,3347 538,3356 C 538,3372 541,3387 538,3402 C 534,3402 531,3402 528,3402 C 525,3413 531,3418 528,3430 C 525,3430 522,3430 519,3430 C 514,3455 515,3465 510,3486 L 491,3486 C 487,3510 496,3497 510,3505 L 510,3523 C 506,3523 503,3523 500,3523 C 504,3544 493,3524 510,3533 C 510,3536 510,3539 510,3542 C 489,3531 510,3561 510,3561 L 482,3579 C 474,3611 484,3568 491,3589 C 496,3603 490,3612 482,3617 C 482,3620 482,3623 482,3626 C 494,3632 490,3635 491,3654 C 486,3655 472,3672 472,3672 C 447,3677 475,3669 463,3663 L 444,3663 C 444,3677 448,3697 444,3710 C 443,3712 430,3714 426,3728 C 420,3728 401,3725 398,3728 C 400,3739 418,3783 416,3794 C 413,3794 410,3794 407,3794 L 407,3812 C 410,3812 413,3812 416,3812 C 416,3827 418,3835 416,3850 C 413,3850 410,3850 407,3850 C 407,3856 408,3873 407,3878 C 404,3878 401,3878 398,3878 C 395,3893 397,3891 407,3896 C 407,3896 404,3906 398,3924 C 395,3924 392,3924 388,3924 C 385,3945 402,3938 398,3952 C 395,3952 392,3952 388,3952 C 388,3958 389,3975 388,3980 L 370,3980 C 361,3999 383,4006 360,4017 C 360,4021 360,4024 360,4027 C 370,4031 374,4031 370,4045 C 367,4045 364,4045 360,4045 L 360,4064 C 332,4078 365,4045 351,4073 C 348,4073 345,4073 342,4073 C 337,4085 346,4099 342,4111 C 339,4111 336,4111 332,4111 C 332,4114 332,4117 332,4120 C 348,4128 356,4141 351,4166 L 332,4166 C 330,4171 332,4190 332,4194 C 329,4196 314,4204 314,4204 C 314,4204 340,4235 332,4241 C 314,4254 322,4262 314,4288 L 295,4288 C 290,4307 308,4305 305,4334 C 301,4334 298,4334 295,4334 C 295,4343 296,4354 295,4362 C 292,4362 289,4362 286,4362 C 281,4384 288,4405 286,4427 L 267,4427 C 265,4442 267,4460 267,4474 C 278,4480 278,4466 277,4483 C 273,4483 270,4483 267,4483 C 264,4492 269,4503 267,4511 C 264,4511 261,4511 258,4511 L 258,4530 C 255,4530 252,4530 249,4530 C 247,4541 249,4547 249,4558 C 252,4558 255,4558 258,4558 L 258,4577 C 255,4577 252,4577 249,4577 C 247,4582 252,4601 249,4605 C 241,4612 213,4612 211,4614 C 211,4614 207,4626 202,4642 C 207,4644 226,4642 230,4642 L 230,4661 C 227,4661 224,4661 221,4661 C 221,4657 221,4654 221,4651 C 216,4651 198,4652 193,4651 L 193,4670 C 189,4670 187,4670 183,4670 C 179,4686 188,4711 183,4726 C 180,4726 177,4726 174,4726 L 174,4744 L 155,4744 C 142,4713 171,4755 146,4735 C 146,4732 146,4729 146,4726 C 130,4718 142,4726 137,4707 C 137,4707 111,4698 137,4698 C 137,4695 137,4692 137,4689 C 136,4687 121,4681 118,4679 C 118,4676 118,4673 118,4670 C 129,4664 129,4658 127,4642 C 124,4642 121,4642 118,4642 C 118,4627 119,4619 118,4605 C 121,4605 124,4605 127,4605 L 127,4586 C 124,4586 121,4586 118,4586 L 118,4567 C 115,4567 112,4567 109,4567 C 109,4567 113,4543 118,4558 L 118,4539 L 99,4539 C 98,4524 99,4508 99,4493 L 118,4493 C 122,4473 118,4447 118,4427 C 115,4427 112,4427 109,4427 C 109,4427 117,4401 118,4418 C 149,4403 83,4411 127,4409 C 122,4408 121,4390 118,4381 C 115,4399 109,4372 109,4372 C 109,4372 124,4364 127,4362 C 128,4338 117,4349 118,4325 C 121,4325 124,4325 127,4325 C 130,4307 125,4287 127,4269 C 131,4269 134,4269 137,4269 C 138,4251 137,4231 137,4213 C 140,4213 143,4213 146,4213 C 147,4193 133,4196 137,4176 C 140,4176 143,4176 146,4176 C 146,4161 144,4152 146,4139 C 148,4140 164,4150 165,4148 C 167,4129 166,4144 155,4139 C 155,4107 151,4076 155,4045 C 159,4045 162,4045 165,4045 C 168,4030 161,4014 165,3999 C 168,3999 171,3999 174,3999 C 175,3991 174,3979 174,3971 C 177,3971 180,3971 183,3971 C 185,3954 184,3966 174,3961 C 174,3947 172,3930 174,3915 C 177,3915 180,3915 183,3915 C 189,3891 188,3875 193,3850 C 196,3850 199,3850 202,3850 C 199,3848 182,3810 183,3803 L 202,3803 C 204,3789 202,3780 202,3766 C 205,3766 208,3766 211,3766 C 215,3735 202,3728 202,3700 C 202,3697 202,3694 202,3691 C 218,3692 208,3684 211,3672 C 210,3690 202,3663 202,3663 C 205,3663 208,3663 211,3663 C 212,3637 204,3604 211,3579 C 215,3579 218,3579 221,3579 L 221,3561 C 224,3561 227,3561 230,3561 C 232,3552 227,3541 230,3533 C 224,3528 209,3525 211,3514 L 230,3514 C 230,3511 230,3508 230,3505 C 233,3505 236,3505 239,3505 C 239,3472 239,3444 239,3411 C 242,3411 246,3411 249,3411 C 251,3394 246,3373 249,3356 C 187,3356 288,3348 239,3365 C 219,3372 214,3358 202,3356 L 202,3337 C 215,3333 207,3326 221,3328 C 221,3328 226,3341 239,3337 C 343,3301 130,3339 249,3328 C 250,3313 249,3305 249,3290 C 252,3290 255,3290 258,3290 C 259,3278 245,3265 249,3262 C 252,3262 255,3262 258,3262 L 258,3244 C 261,3244 264,3244 267,3244 C 271,3229 263,3220 267,3206 L 286,3206 C 291,3187 284,3161 286,3141 C 289,3141 292,3141 295,3141 C 295,3119 292,3089 295,3067 C 298,3067 302,3067 305,3067 C 306,3051 305,3035 305,3020 C 308,3020 311,3020 314,3020 C 315,3000 302,3005 305,2992 C 308,2992 311,2992 314,2992 C 315,2984 314,2972 314,2964 C 317,2964 320,2964 323,2964 C 316,2960 334,2918 314,2908 C 314,2905 314,2902 314,2899 L 332,2899 C 335,2885 318,2875 323,2871 C 326,2871 330,2871 332,2871 C 338,2851 337,2854 342,2834 L 323,2834 L 323,2815 L 342,2815 L 342,2796 C 345,2796 348,2796 351,2796 C 362,2760 355,2733 360,2694 C 341,2698 315,2694 295,2694 C 288,2720 293,2730 286,2759 C 283,2759 280,2759 277,2759 L 277,2778 C 273,2778 270,2778 267,2778 C 265,2792 277,2796 277,2796 C 279,2806 256,2861 277,2852 C 277,2855 277,2859 277,2861 L 258,2861 C 255,2856 239,2843 239,2843 L 239,2824 C 236,2824 233,2824 230,2824 C 225,2808 231,2819 239,2815 C 258,2805 212,2805 230,2796 C 233,2796 236,2796 239,2796 C 247,2778 242,2779 249,2759 C 252,2759 255,2759 258,2759 C 263,2736 256,2707 258,2684 C 247,2689 224,2684 211,2684 C 211,2691 211,2707 211,2712 C 223,2718 222,2704 221,2722 C 217,2722 215,2722 211,2722 C 211,2728 212,2745 211,2750 L 193,2750 C 184,2777 195,2837 183,2861 C 182,2864 158,2861 155,2861 C 149,2883 152,2878 146,2899 C 143,2899 140,2899 137,2899 C 133,2913 141,2922 137,2936 C 134,2936 131,2936 127,2936 C 121,2914 122,2908 118,2889 C 102,2894 111,2879 109,2871 C 122,2871 134,2874 146,2871 C 146,2868 146,2865 146,2861 C 109,2879 122,2833 137,2834 C 142,2818 141,2817 146,2806 C 149,2806 152,2806 155,2806 C 154,2805 155,2780 155,2778 C 57,2785 230,2758 146,2787 L 127,2787 L 127,2768 C 128,2765 166,2754 137,2750 C 149,2746 170,2750 174,2740 C 176,2734 170,2716 174,2712 C 161,2710 161,2726 155,2731 C 149,2728 145,2719 137,2722 L 137,2703 C 133,2700 114,2703 109,2703 L 109,2684 C 112,2684 115,2684 118,2684 C 123,2669 122,2667 127,2656 C 130,2656 155,2657 155,2656 C 159,2650 155,2619 155,2610 C 157,2609 174,2600 174,2600 C 179,2581 160,2584 165,2573 L 183,2573 C 190,2549 185,2537 193,2517 C 196,2517 199,2517 202,2517 L 202,2498 C 205,2498 208,2498 211,2498 L 211,2479 C -169,2289 563,2683 202,2470 C 200,2469 158,2461 155,2461 C 159,2453 151,2441 155,2433 L 174,2433 L 174,2414 C 177,2414 180,2414 183,2414 C 187,2400 179,2381 183,2367 C 162,2373 162,2348 137,2358 C 135,2359 137,2383 137,2386 C 127,2389 102,2393 99,2395 L 99,2414 C 99,2414 124,2412 109,2405 C 112,2405 115,2405 118,2405 C 118,2408 118,2411 118,2414 C 121,2414 124,2414 127,2414 C 124,2425 131,2431 127,2442 C 126,2445 112,2448 109,2451 L 109,2470 C 113,2454 118,2479 118,2479 C 115,2479 112,2479 109,2479 C 103,2507 107,2508 99,2535 C 96,2535 93,2535 90,2535 C 86,2555 90,2580 90,2600 C 87,2600 84,2600 81,2600 C 81,2604 81,2607 81,2610 C 90,2614 92,2614 90,2628 C 87,2628 84,2628 81,2628 C 81,2643 83,2651 81,2666 C 78,2666 75,2666 71,2666 C 70,2676 82,2693 81,2694 C 64,2702 71,2764 62,2787 L 44,2796 L 44,2778 C 25,2771 17,2784 6,2787 C 13,2767 -10,2769 -3,2750 L 16,2750 C 16,2746 16,2744 16,2740 C 19,2740 22,2740 25,2740 L 25,2722 C 25,2722 41,2713 44,2712 L 44,2694 C 35,2689 30,2700 34,2684 C 43,2683 54,2684 62,2684 C 62,2681 62,2678 62,2675 C 50,2669 54,2674 44,2666 C 22,2649 69,2659 34,2656 C 41,2637 39,2624 44,2600 L 62,2600 C 65,2586 61,2586 53,2582 C 53,2579 53,2576 53,2573 C 56,2573 59,2573 62,2573 C 74,2566 53,2554 53,2554 C 53,2551 53,2548 53,2545 C 67,2537 60,2536 62,2517 C 52,2511 50,2525 53,2507 C 56,2507 59,2507 62,2507 L 62,2489 C 65,2489 69,2489 71,2489 C 75,2480 71,2470 71,2461 C 91,2450 75,2475 81,2451 C 81,2451 56,2449 71,2442 C 90,2433 76,2455 81,2433 C 84,2433 87,2433 90,2433 C 92,2420 79,2424 81,2405 C 84,2405 87,2405 90,2405 C 94,2359 94,2338 99,2302 C 90,2297 86,2309 90,2293 C 93,2293 97,2293 99,2293 C 105,2274 104,2267 109,2246 C 112,2246 115,2246 118,2246 C 120,2230 123,2196 118,2181 L 99,2181 C 99,2180 98,2154 99,2153 C 103,2153 106,2153 109,2153 L 109,2134 C 112,2134 115,2134 118,2134 C 129,2092 119,2053 127,2013 C 131,2013 134,2013 137,2013 C 138,1999 137,1990 137,1976 C 140,1976 143,1976 146,1976 C 153,1947 146,1935 155,1911 L 174,1901 C 178,1885 173,1896 165,1892 C 165,1889 165,1886 165,1883 C 168,1883 171,1883 174,1883 C 189,1875 165,1873 165,1873 C 170,1858 176,1866 174,1845 C 171,1845 168,1845 165,1845 C 165,1830 163,1813 165,1799 C 168,1799 171,1799 174,1799 C 175,1794 174,1777 174,1771 C 177,1771 180,1771 183,1771 C 187,1754 181,1732 183,1715 C 187,1715 190,1715 193,1715 C 199,1672 196,1656 202,1612 C 205,1612 208,1612 211,1612 C 213,1591 207,1568 211,1547 C 215,1547 218,1547 221,1547 C 221,1542 221,1525 221,1519 C 224,1519 227,1519 230,1519 C 234,1497 221,1463 239,1454 C 239,1451 239,1448 239,1445 C 229,1440 226,1433 230,1417 L 249,1407 C 254,1394 246,1375 249,1361 C 252,1361 255,1361 258,1361 C 265,1314 262,1298 267,1249 C 270,1249 274,1249 277,1249 C 278,1230 264,1233 267,1221 L 286,1221 C 293,1187 287,1179 295,1146 C 298,1146 302,1146 305,1146 C 310,1121 309,1108 314,1081 C 317,1081 320,1081 323,1081 C 325,1066 320,1050 323,1034 C 326,1034 330,1034 332,1034 C 334,1023 332,1018 332,1007 C 336,1007 339,1007 342,1007 C 349,972 342,947 351,913 C 354,913 358,913 360,913 L 360,895 C 364,895 367,895 370,895 C 374,875 366,850 370,829 C 373,829 376,829 379,829 C 386,796 383,787 388,755 C 392,755 395,755 398,755 C 400,739 395,725 398,708 C 401,708 404,708 407,708 C 409,690 403,670 407,652 C 410,652 413,652 416,652 C 418,641 416,635 416,624 C 420,624 423,624 426,624 C 429,610 423,601 426,587 C 429,587 432,587 435,587 C 442,560 438,559 444,531 C 448,531 451,531 454,531 C 456,519 449,504 454,494 L 472,494 C 472,491 472,488 472,485 C 475,485 479,485 482,485 C 494,472 479,448 500,438 C 500,435 500,432 500,429 C 505,424 521,431 528,429 L 547,401 C 558,393 582,398 593,391 L 593,373 L 612,373 C 615,366 618,355 621,354 C 632,349 647,356 659,354 C 659,351 659,348 659,345 C 678,340 691,344 705,335 L 724,307 C 727,307 730,307 733,307 L 733,289 C 737,289 740,289 743,289 L 743,270 L 761,270 L 761,252 L 780,252 C 782,247 789,233 789,233 C 792,233 796,233 799,233 L 799,214 C 808,208 824,218 836,214 C 836,211 836,208 836,205 C 846,200 843,201 854,196 C 853,194 854,171 854,168 C 842,161 849,165 836,158 C 836,155 836,152 836,149 C 825,145 819,153 808,149 C 808,149 799,131 799,130 C 808,128 821,136 817,121 C 817,121 801,113 799,112 C 799,94 802,72 799,56 C 785,53 775,56 761,56 L 761,37 C 764,37 768,37 771,37 C 778,16 760,37 780,28 L 780,9 C 791,4 814,9 827,9 C 827,6 827,3 827,0 C 830,0 833,0 836,0 z "
   class="fil3"
   id="60594568" />
    </g><path
   id="60594744"
   class="fil5"
   d="M 1344,2107 C 1344,2107 1350,2119 1351,2120 C 1347,2120 1335,2119 1331,2120 C 1337,2116 1334,2106 1344,2107 z "
   style="fill:#004cff;fill-opacity:1" /><path
   id="60594832"
   class="fil5"
   d="M 2078,2939 C 2078,2939 2084,2966 2088,2967 C 2102,2975 2095,2955 2097,2949 C 2084,2942 2092,2946 2078,2939 z "
   style="fill:#004cff;fill-opacity:1" /><path
   id="60594920"
   class="fil5"
   d="M 2274,2874 L 2274,2893 C 2277,2893 2280,2893 2283,2893 C 2280,2881 2292,2874 2274,2874 z "
   style="fill:#004cff;fill-opacity:1" /><path
   id="60595008"
   class="fil5"
   d="M 2227,2837 L 2237,2856 C 2253,2859 2243,2847 2246,2837 L 2227,2837 z "
   style="fill:#004cff;fill-opacity:1" /><path
   id="60595096"
   class="fil5"
   d="M 2274,2772 L 2274,2790 C 2277,2790 2280,2790 2283,2790 C 2280,2779 2292,2772 2274,2772 z "
   style="fill:#004cff;fill-opacity:1" /><path
   id="60595184"
   class="fil5"
   d="M 2293,2567 L 2302,2585 C 2319,2588 2308,2577 2311,2567 L 2293,2567 z "
   style="fill:#004cff;fill-opacity:1" /><path
   id="60595272"
   class="fil5"
   d="M 1118,2250 L 1118,2268 C 1121,2268 1124,2268 1127,2268 C 1124,2257 1135,2250 1118,2250 z "
   style="fill:#004cff;fill-opacity:1" /><path
   id="60595360"
   class="fil5"
   d="M 2088,2045 C 2088,2048 2088,2051 2088,2054 L 2106,2054 C 2105,2054 2105,2045 2088,2045 z "
   style="fill:#004cff;fill-opacity:1" /><path
   id="60595448"
   class="fil5"
   d="M 2004,1998 C 2004,1998 2004,2025 2004,2026 C 2025,2026 2025,1998 2004,1998 z "
   style="fill:#004cff;fill-opacity:1" /><path
   id="60595536"
   class="fil5"
   d="M 1827,1964 C 1827,1967 1827,1971 1827,1973 C 1849,1973 1879,1969 1901,1973 C 1901,1977 1901,1980 1901,1983 C 1912,1984 1918,1983 1929,1983 C 1929,1986 1929,1989 1929,1992 C 1974,1995 1905,1994 1939,1983 C 1950,1979 1955,1987 1967,1983 C 2035,1959 1894,1977 1976,1973 C 1976,1977 1976,1980 1976,1983 C 1998,1983 2028,1978 2050,1983 C 2050,1986 2050,1989 2050,1992 C 2057,1992 2073,1991 2078,1992 C 2078,1995 2078,1998 2078,2001 C 2092,2004 2112,1996 2125,2001 L 2134,2020 C 2147,2024 2167,2016 2181,2020 C 2181,2023 2181,2026 2181,2029 L 2200,2029 C 2200,2033 2200,2036 2200,2039 C 2207,2040 2221,2035 2228,2039 C 2228,2042 2228,2045 2228,2048 C 2248,2058 2254,2075 2274,2085 C 2274,2088 2274,2092 2274,2095 C 2282,2100 2293,2097 2302,2104 C 2302,2104 2286,2128 2284,2132 C 2268,2129 2278,2129 2265,2123 C 2269,2134 2261,2147 2265,2160 C 2268,2160 2271,2160 2274,2160 L 2274,2178 L 2293,2188 L 2293,2206 C 2296,2206 2299,2206 2302,2206 C 2304,2224 2295,2213 2284,2216 C 2278,2237 2283,2237 2274,2253 C 2291,2262 2295,2252 2302,2272 C 2299,2272 2296,2272 2293,2272 C 2290,2276 2287,2288 2284,2290 C 2280,2290 2277,2290 2274,2290 C 2274,2290 2260,2320 2265,2318 C 2286,2311 2276,2359 2284,2374 C 2284,2374 2297,2381 2302,2384 L 2302,2402 L 2321,2402 C 2355,2430 2293,2402 2330,2421 C 2330,2424 2330,2427 2330,2430 L 2349,2430 C 2344,2439 2349,2457 2349,2467 C 2314,2467 2361,2466 2339,2477 C 2337,2475 2307,2470 2330,2486 L 2330,2505 C 2333,2505 2337,2505 2339,2505 C 2343,2505 2346,2505 2349,2505 C 2353,2518 2336,2511 2339,2533 C 2343,2533 2346,2533 2349,2533 L 2349,2551 C 2352,2551 2355,2551 2358,2551 C 2358,2551 2375,2576 2377,2579 C 2380,2579 2383,2579 2386,2579 L 2386,2598 C 2389,2598 2392,2598 2395,2598 C 2395,2598 2394,2621 2386,2607 C 2392,2624 2388,2623 2395,2635 C 2399,2635 2402,2635 2405,2635 L 2405,2654 C 2408,2654 2411,2654 2414,2654 C 2415,2660 2414,2677 2414,2682 C 2411,2682 2408,2682 2405,2682 C 2401,2701 2403,2728 2405,2747 C 2408,2747 2411,2747 2414,2747 C 2416,2761 2414,2770 2414,2784 C 2417,2784 2420,2784 2423,2784 C 2426,2799 2420,2807 2423,2822 C 2420,2824 2388,2829 2386,2831 L 2386,2850 C 2383,2850 2380,2850 2377,2850 C 2371,2876 2375,2880 2367,2906 C 2355,2907 2349,2924 2349,2924 C 2323,2932 2325,2908 2302,2915 L 2302,2934 C 2283,2943 2300,2922 2293,2943 C 2292,2943 2265,2941 2265,2943 C 2260,2949 2265,2972 2265,2980 C 2238,2993 2269,2964 2256,2989 C 2225,2989 2193,2989 2162,2989 C 2162,2993 2162,2996 2162,2999 C 2144,3001 2115,2992 2097,2999 C 2096,2999 2097,3026 2097,3027 C 2076,3026 2085,3036 2069,3036 C 2069,3033 2069,3030 2069,3027 C 2055,3027 2036,3023 2022,3027 L 2004,3055 C 1999,3057 1940,3064 1939,3064 C 1939,3064 1930,3047 1920,3045 C 1918,3063 1920,3083 1920,3101 C 1902,3110 1914,3089 1911,3111 C 1899,3105 1878,3111 1864,3111 C 1860,3096 1871,3096 1855,3092 C 1855,3089 1855,3086 1855,3083 C 1852,3083 1849,3083 1845,3083 C 1843,3084 1845,3107 1845,3111 C 1842,3112 1836,3120 1836,3120 C 1822,3125 1812,3115 1799,3120 C 1799,3123 1799,3126 1799,3129 C 1781,3133 1775,3139 1752,3139 C 1752,3135 1752,3132 1752,3129 C 1739,3129 1717,3134 1706,3129 L 1696,3111 C 1670,3103 1646,3110 1622,3101 L 1612,3083 C 1604,3077 1554,3070 1538,3073 C 1538,3077 1538,3080 1538,3083 C 1522,3091 1506,3112 1482,3111 L 1463,3083 C 1453,3078 1438,3085 1426,3083 C 1426,3079 1426,3077 1426,3073 C 1403,3073 1374,3075 1351,3073 C 1343,3049 1356,3048 1342,3045 C 1325,3042 1303,3045 1286,3045 C 1286,3049 1286,3052 1286,3055 C 1251,3056 1246,3043 1212,3045 C 1212,3049 1212,3052 1212,3055 C 1196,3055 1180,3058 1165,3055 L 1146,3027 L 1128,3027 L 1109,2999 L 1090,2999 C 1089,2998 1083,2984 1081,2980 C 1078,2980 1075,2980 1072,2980 C 1072,2977 1072,2974 1072,2971 L 1053,2971 C 1050,2968 1036,2944 1034,2943 L 1016,2943 C 1016,2943 1008,2927 1006,2924 L 988,2924 C 983,2920 984,2898 978,2896 L 960,2896 L 960,2878 L 923,2850 C 915,2838 924,2829 913,2822 L 895,2822 C 895,2818 895,2816 895,2812 L 876,2812 C 876,2809 876,2806 876,2803 C 868,2801 856,2806 848,2803 C 848,2800 848,2797 848,2794 C 843,2794 826,2795 820,2794 L 820,2775 C 813,2772 800,2777 792,2775 C 792,2772 792,2769 792,2766 C 787,2766 770,2767 764,2766 C 764,2763 764,2760 764,2756 C 756,2755 745,2756 736,2756 C 736,2760 736,2763 736,2766 C 722,2768 713,2765 699,2766 L 699,2747 C 704,2749 722,2747 727,2747 C 727,2744 727,2741 727,2738 C 703,2732 701,2735 680,2728 C 683,2712 678,2699 680,2682 C 683,2682 687,2682 690,2682 C 690,2665 693,2643 690,2626 C 686,2626 683,2626 680,2626 L 680,2607 L 652,2589 C 649,2579 649,2543 652,2533 L 680,2514 C 694,2501 699,2486 717,2477 C 717,2474 717,2471 717,2467 C 738,2458 732,2481 755,2477 L 764,2458 C 779,2452 799,2458 811,2449 C 811,2449 819,2403 820,2402 L 839,2402 C 840,2401 846,2386 848,2384 L 867,2384 C 875,2370 868,2329 876,2318 C 877,2316 902,2318 904,2318 C 906,2314 913,2300 913,2300 C 916,2300 920,2300 923,2300 L 923,2281 C 923,2281 907,2273 904,2272 C 904,2254 903,2243 904,2225 C 907,2225 910,2225 913,2225 C 915,2213 923,2160 923,2160 L 885,2132 C 889,2121 901,2120 895,2104 C 891,2104 888,2104 885,2104 C 882,2104 879,2104 876,2104 L 876,2085 C 879,2085 882,2085 885,2085 C 886,2085 902,2061 904,2057 C 920,2060 934,2057 951,2057 C 951,2061 951,2064 951,2067 C 966,2068 991,2063 1006,2067 C 1006,2070 1006,2073 1006,2076 C 1015,2078 1026,2074 1034,2076 C 1034,2079 1034,2082 1034,2085 C 1043,2085 1054,2084 1062,2085 C 1062,2088 1062,2092 1062,2095 C 1078,2098 1094,2091 1109,2095 C 1109,2098 1109,2101 1109,2104 C 1129,2107 1154,2100 1174,2104 C 1174,2107 1174,2110 1174,2113 C 1195,2118 1210,2117 1230,2123 C 1230,2126 1230,2129 1230,2132 C 1252,2136 1274,2125 1295,2132 L 1305,2151 C 1315,2155 1321,2148 1333,2151 C 1333,2154 1333,2157 1333,2160 L 1351,2160 C 1351,2163 1351,2166 1351,2169 C 1360,2171 1371,2167 1379,2169 C 1391,2144 1363,2172 1389,2160 C 1389,2151 1385,2140 1389,2132 L 1407,2123 C 1409,2118 1404,2098 1407,2095 C 1414,2088 1431,2093 1435,2085 C 1441,2072 1431,2079 1426,2076 C 1433,2055 1416,2076 1435,2067 L 1435,2048 C 1435,2048 1452,2039 1454,2039 C 1454,2035 1454,2033 1454,2029 L 1473,2029 C 1473,2033 1473,2036 1473,2039 C 1490,2041 1513,2056 1538,2048 C 1545,2045 1530,2024 1538,2020 C 1543,2017 1560,2020 1566,2020 C 1570,2008 1569,1995 1575,1992 C 1583,1988 1595,1994 1603,1992 C 1603,1989 1603,1986 1603,1983 C 1637,1983 1672,1985 1706,1983 C 1706,1980 1706,1977 1706,1973 C 1738,1973 1787,1984 1817,1973 C 1861,1958 1770,1963 1827,1964 z "
   style="fill:#0000cc;fill-opacity:1" /><g
   id="g3902"><path
     id="60595800"
     class="fil6"
     d="M -1781,5067 L -2109,5067 L -2109,4111 L -2494,4111 L -2494,3866 L -1396,3866 L -1396,4111 L -1781,4111 L -1781,5067 z "
     style="fill:#000000;fill-opacity:1" /><path
     id="60595888"
     class="fil6"
     d="M 2258,4111 L 1695,4111 L 1695,4333 L 2222,4333 L 2222,4575 L 1697,4575 L 1697,4820 L 2264,4820 L 2264,5067 L 1377,5067 L 1377,3866 L 2258,3866 L 2258,4111 z "
     style="fill:#000000;fill-opacity:1" /><path
     id="60595976"
     class="fil6"
     d="M 2710,3866 L 2710,5067 L 2380,5067 L 2380,3866 L 2710,3866 z "
     style="fill:#000000;fill-opacity:1" /><path
     id="60596064"
     class="fil6"
     d="M 111,3866 L 111,5067 L -219,5067 L -219,3866 L 111,3866 z "
     style="fill:#000000;fill-opacity:1" /><path
     id="60596152"
     class="fil6"
     d="M 608,5067 L 288,5067 L 288,3866 L 822,3866 C 1002,3866 1090,3886 1168,3946 C 1248,4007 1295,4117 1295,4243 C 1295,4400 1231,4524 1127,4576 C 1044,4616 962,4631 789,4631 L 608,4631 L 608,5067 z M 698,4407 C 882,4407 945,4367 945,4250 C 945,4144 885,4101 731,4101 L 608,4101 L 608,4407 L 698,4407 z "
     style="fill:#000000;fill-opacity:1" /><path
     id="60596240"
     class="fil6"
     d="M -1275,4832 L -1367,5067 L -1694,5067 L -1170,3866 L -784,3866 L -247,5067 L -612,5067 L -711,4832 L -1275,4832 z M -997,4122 L -1186,4598 L -805,4598 L -997,4122 z "
     style="fill:#000000;fill-opacity:1" /></g>
</svg>